<?xml version="1.0" encoding="iso-8859-1"?>
<!-- Generator: Adobe Illustrator 19.0.0, SVG Export Plug-In . SVG Version: 6.00 Build 0)  -->
<svg version="1.1" id="Capa_1" xmlns="http://www.w3.org/2000/svg" xmlns:xlink="http://www.w3.org/1999/xlink" x="0px" y="0px"
	 viewBox="0 0 512.001 512.001" style="enable-background:new 0 0 512.001 512.001;" xml:space="preserve">
<circle style="fill:#EAEAEA;" cx="255.997" cy="255.997" r="255.997"/>
<path style="fill:#CCCCCC;" d="M166.637,437.018c-99.973-99.973-99.973-262.063,0-362.037c38.28-38.28,85.67-61.885,135.19-70.85
	c-79.808-14.449-165.153,9.156-226.847,70.85c-99.973,99.973-99.973,262.063,0,362.037c61.693,61.693,147.039,85.298,226.847,70.85
	C252.307,498.902,204.917,475.298,166.637,437.018z"/>
<path style="fill:#FC3552;" d="M450.863,89.962c44.303,51.878,64.531,117.263,60.675,181.478h-0.011
	c-16.731-26.982-41.016-54.607-77.374-78.586c-65.574-13.465-40.289-39.804-18.427-71.611l0.011-0.011l35.116-31.259L450.863,89.962
	z"/>
<path style="fill:#FEC755;" d="M334.452,499.741c-11.589,3.719-23.4,6.595-35.316,8.618
	c-79.039,13.444-163.156-10.336-224.158-71.337c-2.202-2.202-4.362-4.446-6.479-6.711l55.586-49.476l202.918-180.624l0.011-0.011
	c0.759,0.843,24.401-12.179,33.135-8.165c9.914,4.541,24.043,14.75,24.043,34.705C396.549,316.588,393.072,432.945,334.452,499.741z
	"/>
<path style="fill:#38ABF9;" d="M343.491,132.835c-8.386,8.386-12.843,7.828-37.697,7.828h-0.011
	c-2.244-0.516-4.509-1.032-6.796-1.528c-66.438-14.466-123.573-17.51-172.038-12.948c-41.037,3.846-75.857,13.138-104.841,25.56
	C34.51,123.9,52.136,97.824,74.978,74.983C127.435,22.526,197.003-2.412,265.717,0.19c3.94,2.939,7.954,6.1,12,9.514
	c23.979,20.197,49.181,48.728,68.798,86.214C346.515,116.178,350.729,125.607,343.491,132.835z"/>
<path style="fill:#2BA0E2;" d="M126.951,126.187c-41.037,3.846-75.857,13.138-104.841,25.56
	C34.51,123.9,52.137,97.824,74.978,74.983C127.435,22.526,197.003-2.412,265.717,0.19c3.94,2.939,7.954,6.1,12,9.514
	c-40.678,11.505-79.06,33.261-111.078,65.279C150.94,90.681,137.708,107.907,126.951,126.187z"/>
<path style="fill:#E5AA41;" d="M301.822,507.864c-0.885,0.158-1.781,0.327-2.687,0.495
	c-79.039,13.444-163.156-10.336-224.158-71.337c-2.202-2.202-4.362-4.446-6.479-6.711l55.586-49.476
	c11.252,20.134,25.444,39.066,42.554,56.187C204.915,475.298,252.305,498.898,301.822,507.864z"/>
<path style="fill:#3B4C5B;" d="M415.726,121.242c19.733,21.314,26.287,49.444,18.427,71.611
	c-2.486,7.006-6.416,13.412-11.821,18.817c-10.093,10.104-23.695,15.034-38.139,15.066c-18.733,0.042-38.908-8.155-54.796-24.043
	c-0.822-0.822-1.622-1.654-2.381-2.497c-16.299-17.595-23.6-39.846-21.219-59.537c1.401-11.705,6.227-22.515,14.613-30.901
	c7.238-7.228,16.257-11.811,26.108-13.844c21.725-4.478,47.463,3.456,66.828,22.831
	C414.167,119.567,414.968,120.399,415.726,121.242z"/>
<g>
</g>
<g>
</g>
<g>
</g>
<g>
</g>
<g>
</g>
<g>
</g>
<g>
</g>
<g>
</g>
<g>
</g>
<g>
</g>
<g>
</g>
<g>
</g>
<g>
</g>
<g>
</g>
<g>
</g>
</svg>
