<svg id="Layer_1" data-name="Layer 1" xmlns="http://www.w3.org/2000/svg" width="460.88" height="441.1" viewBox="0 0 460.88 441.1">
  <defs>
    <style>
      .cls-1 {
        fill: #571c00;
      }

      .cls-2 {
        fill: #fff;
      }

      .cls-3 {
        fill: #c09a87;
      }

      .cls-4 {
        fill: #ffcf01;
      }
    </style>
  </defs>
  <title>rowan-university-profs-logo-freelogovectors.net</title>
  <g id="Layer_2" data-name="Layer 2">
    <g id="Layer_1-2" data-name="Layer 1-2">
      <path class="cls-1" d="M469.48,210.14c22.28-45.3,3.7-75.41,3.7-75.41-1.22,7.7-6.92,14.63-6.92,14.63C471.72,112.3,434,61.89,434,61.89c2.59,19.52-47,31.6-43.28,80.54C336.28,84.88,272.9,89.07,255.17,91.61,249.26,78.88,214.64,16.05,113.33,32c0,0,15.51,1.23,22.83,7.75,0,0-39.59.25-69.78,32.53,0,0,55.05,3.51,79.07,54.3,0,0-44,.91-45,35.28,0,0-24.57,7.16-38.5,22.68a28.76,28.76,0,0,1,9.35,6.48S7.11,254.82,21.73,393.43c0,0,4.54,40.18,25.11,72.22,18.5-24,55.56-63.54,109.63-80.72,0,0,30.22,46.06,101.62,61.21.24-15.18,3.14-31.86,13.19-41.75,0,0,34.73,34.82,26.6,66.16C460.21,455.3,447.11,365.44,447.11,365.44,499.76,300.3,469.48,210.14,469.48,210.14Z" transform="translate(-19.56 -29.45)"/>
      <path class="cls-2" d="M262,269.17c-10.15-2.73-16.58-13.65-14.36-24.33A20.09,20.09,0,0,1,249,240.5c-4.38-4.41-8.36-8.19-11.67-11.2-6.21,14.66-5.18,36,14.36,49.23,14.45,9.8,25.76,7.25,32.61,3.51-3.47-4.85-7-9.46-10.51-13.84A17.57,17.57,0,0,1,262,269.17Z" transform="translate(-19.56 -29.45)"/>
      <path class="cls-3" d="M249.06,240.5a18.45,18.45,0,0,1,8.35-8.83c-3.74-4.93-7.51-9.92-11.15-14.8a31.8,31.8,0,0,0-8.87,12.43C240.73,232.33,244.67,236.09,249.06,240.5Z" transform="translate(-19.56 -29.45)"/>
      <path class="cls-3" d="M291.75,276.22s-4.28-5.46-10.77-13.84a18.11,18.11,0,0,1-7.13,5.82c3.5,4.38,7,9,10.51,13.84A27.26,27.26,0,0,0,291.75,276.22Z" transform="translate(-19.56 -29.45)"/>
      <path class="cls-2" d="M414.39,252.84a19.6,19.6,0,0,1,3.53,5.46,56.65,56.65,0,0,1-6.73,10.5,13.07,13.07,0,0,1,.37,1.62,14.06,14.06,0,0,1-18.4,15.44c-3,2.2-5.65,4-7.79,5.37a41.62,41.62,0,0,1-4.22-2.73s15.71,12.08,28.32,4.87C421.42,286.6,424,263,414.39,252.84Z" transform="translate(-19.56 -29.45)"/>
      <path class="cls-3" d="M393.16,285.86a14.29,14.29,0,0,1-3.88-2.05,28.18,28.18,0,0,1-8.19,4.74,40,40,0,0,0,4.22,2.73C387.51,289.88,390.21,288.06,393.16,285.86Z" transform="translate(-19.56 -29.45)"/>
      <path class="cls-3" d="M411.19,268.8a56.65,56.65,0,0,0,6.73-10.5,19.6,19.6,0,0,0-3.53-5.46l-.22-.22a14.73,14.73,0,0,0-1.48-1.36s-2.14,4.65-5.76,10.71A14,14,0,0,1,411.19,268.8Z" transform="translate(-19.56 -29.45)"/>
      <path class="cls-4" d="M292.85,311.67c52.45,5.12,54-23.64,54-23.64-15.45,7.8-36.74-8.19-36.74-8.19-5.71,14.65-22.05,24.33-22.05,24.33-19,28.66-44.52,21-50.68,18.64,1.75-.27,3.44-.61,5.1-1A46,46,0,0,0,257,315.93a71.55,71.55,0,0,0,19.11-15.42c-27.72-3.2-43.6-14.66-52.65-26.71-11.43-18.94-10.06-42.77-1.87-53.87,0,0-6.57-14.41-21.72-19.41l-.19-.12c23.64-3.17,45.31,9.66,45.31,9.66-4.73-9.35-16.52-24.8-16.52-24.8s-55.32-6.39-67.35,51.56,52.28,86.43,52.28,86.43-21.54,14.41-41.17,2.61c2.54,8.91,10.59,28.51,33.63,37.18,0,0-1.74-9.75,4.1-13.5,9.56,26.43,88.1,52.16,114.84,30.21C320.21,335.89,292.85,311.67,292.85,311.67Z" transform="translate(-19.56 -29.45)"/>
      <path class="cls-4" d="M449.21,208.89c-6.33,18.32-22.36,30.49-22.36,30.49,11.22.78,17.39-2.45,17.39-2.45a118.31,118.31,0,0,1-12.56,15.76c8.26,19.11,2.58,49.54-17,57.77.31,1.23.57,2.43.79,3.59a1.82,1.82,0,0,0,0,.33,1.06,1.06,0,0,0,.07.45,48.84,48.84,0,0,1,.58,10h0v.41c-.73,10.4-5.29,15.78-5.29,15.78-1.15-18.6-8.7-25.93-13.19-28.66,8.51,79.29-25.5,110.64-50.4,122.85,21-4.23,55-15.95,72.61-48.13,5.57-10.2,2.89-24.15,2.89-24.15C494.17,277,449.21,208.89,449.21,208.89Z" transform="translate(-19.56 -29.45)"/>
      <path class="cls-4" d="M139.64,279.15c-31.4-35.58-11-71-11-71C126.14,218.17,133,232,133,232a21.78,21.78,0,0,1,8.36-5.78c13.18-57.56,68.13-61.94,68.13-61.94-37.91-15.33-65.22,15.59-73.35,26.42-14.64-9.35-18.6-18.55-18.6-18.55-43.17,21-59.21,61.61-59.21,61.61,9.8-.49,15.26,9.87,15.26,9.87-36.34,30.78-37.22,77.71-37.22,77.71,16.23-33.47,32.76-37.95,32.76-37.95C55.18,303.72,58.6,330,58.6,330,35.88,348,41.68,370.88,41.68,370.88,73.08,341.88,116,344,116,344c-17.15,11.44-22.65,42-22.65,42,17-27,51.43-34.3,51.43-34.3,2.35-15.39,11.7-36,11.7-36C141.18,302.24,139.64,279.15,139.64,279.15Zm-54.52,34.3s-.32-29.13,10.58-53.66c.94,4.1,2.58,9.35,5.14,12.46a25.21,25.21,0,0,1,9.56.36A128.83,128.83,0,0,0,85.12,313.45ZM99.6,228.59S83.22,216.18,70.94,224c0,0,12.28-20.73,43-13.87.1,0-11.06,6.81-14.28,18.42Z" transform="translate(-19.56 -29.45)"/>
      <path class="cls-4" d="M261.37,259.48s10.1,4.57,15.81-5.19l-6.42-6.62A15.15,15.15,0,0,1,261.37,259.48Z" transform="translate(-19.56 -29.45)"/>
      <path class="cls-4" d="M402.28,281.38c3.25-6.82-2.5-13.11-2.5-13.11l-4.56,4.58C401.8,278.34,402.28,281.38,402.28,281.38Z" transform="translate(-19.56 -29.45)"/>
      <path class="cls-4" d="M280.81,237.91l.8,1.23c18.5,28.06,38.67,45.26,66.57,37.44,0,0,9,1.46,26.8-5.46a58.09,58.09,0,0,0,10.39-5.3A54.81,54.81,0,0,0,394,259c17.49-17,18.65-40.62,18.65-40.62,26.56,3.86,45.28-46.72,22.37-74.85s-5.06-54.78-5.06-54.78c-39,26.42-27.22,68.54-27.22,68.54,19.11,18.21,16.78,33,16.78,33-82.1-102.37-157.79-83.79-157.79-83.79,19.58,28.22,24.44,55.31,42.77,70.21C268.22,166.57,258,75.69,194.18,57c28.2,18.38,31.26,45.11,48.13,61.83-29.59-7.72-35-77.23-100.12-64.78C213.8,83.58,244.21,181.67,280.81,237.91Z" transform="translate(-19.56 -29.45)"/>
      <path class="cls-4" d="M382.49,308.47c-5.59-2-9.79-7.44-12-10.83,2,20.91,4.25,67.2-11.59,88.73,0,0,11.95-32.54.88-80.44-8.83,8.71-24.23,18.78-46.63,15.6,30.45,40.32,30.53,101.37,30.53,101.37C393.19,392.89,382.49,308.47,382.49,308.47Z" transform="translate(-19.56 -29.45)"/>
    </g>
  </g>
</svg>
