<?xml version="1.0" encoding="utf-8"?>
<!-- Generator: Adobe Illustrator 22.1.0, SVG Export Plug-In . SVG Version: 6.00 Build 0)  -->
<svg version="1.1" id="Layer_1" xmlns="http://www.w3.org/2000/svg" xmlns:xlink="http://www.w3.org/1999/xlink" x="0px" y="0px"
	 viewBox="0 0 512 512" style="enable-background:new 0 0 512 512;" xml:space="preserve">
<g>
	<path fill="#8C45F7" d="M64.4,394.6c0-35.1,0-68.8,0-104.2c19.8,11.5,38.6,22.4,58.5,34c0,11.2,0,22.5,0,34c46.2,27.5,91.3,54.3,136.7,81.3
		c43-25.5,85.5-50.8,129.9-77.1c0-19.1,0-39.7,0-62.2c-67.2-40-135.1-80.4-204.5-121.8c20.3-12.1,39-23.3,58.9-35.2
		c68.4,40.7,137.1,81.5,205.9,122.5c0,43.8,0,87,0,131.4c-63.3,37.7-126.8,75.6-191,113.9C193.9,472.1,129.3,433.4,64.4,394.6z"/>
	<path fill="#8C45F7" d="M64.2,246.8c0-43.9,0-87,0-130.9C127.6,78.2,190.9,40.5,255.4,2.1C320,40.7,384.7,79.3,449.5,118c0,34.6,0,68.7,0,104.6
		c-20.5-12.2-39.7-23.6-59.4-35.4c0-11.2,0-22.2,0-33.8c-45.1-26.9-89.9-53.6-135.4-80.7c-43.3,25.8-86.6,51.6-130,77.4
		c0,20.5,0,40.4,0,62.2c66.6,39.6,134.2,79.9,204.1,121.5c-20.3,12.5-39.3,24.2-58,35.7C201.3,328.3,132.8,287.6,64.2,246.8z"/>
</g>
</svg>
