<?xml version="1.0" encoding="utf-8"?>
<!-- Generator: Adobe Illustrator 22.1.0, SVG Export Plug-In . SVG Version: 6.00 Build 0)  -->
<svg version="1.1" id="Layer_1" xmlns="http://www.w3.org/2000/svg" xmlns:xlink="http://www.w3.org/1999/xlink" x="0px" y="0px"
	 viewBox="0 0 512 512" style="enable-background:new 0 0 512 512;" xml:space="preserve">
<style type="text/css">
	.st0{fill:#1FA7E0;}
	.st1{fill:#67B59E;}
	.st2{fill:#70C3AA;}
	.st3{fill:#AADFF4;}
	.st4{fill:#5CAA92;}
	.st5{fill:#97D3C1;}
	.st6{fill:#4AB7E4;}
	.st7{fill:#3CACC3;}
	.st8{fill:#C2E5DB;}
	.st9{fill:#5E6663;}
	.st10{fill:#B0B8B6;}
	.st11{fill:#6D7A76;}
	.st12{fill:#A8E2D7;}
	.st13{fill:#65A08C;}
</style>
<g>
	<g>
		<path class="st0" d="M513,513c-170.6,0-341.2,0-511.9,0c0-170.5,0-341.1,0-511.8c170.6,0,341.2,0,511.9,0
			C513,171.7,513,342.3,513,513z M240.9,462c2.9,0.3,5.8,1,8.7,0.9c7.9-0.1,15.7-0.6,23.6-0.9c10-1,20-1.8,29.9-3.1
			c6.5-0.8,12.8-2.3,19.2-3.7c1.7-0.4,3.1-1.8,4.7-2.7c2.3-0.8,4.6-1.8,7-2.4c20.5-5.6,38.1-16.5,54-30.1c5.3-4.6,8.7-11.3,13-17
			c2.4-4.7,4.7-9.3,7.1-14c0.4-0.1,0.7-0.1,1.1-0.2c0.3-0.2,0.6-0.5,1-0.7c10.4-5.5,22.4-7.9,31.4-16.2c4.7-4.2,8.2-9.1,7.2-15.4
			c-1-6.6-3.1-13-4.7-19.5c-0.8-3.4-1.6-6.7-2.3-10.1c3-6.3,5.9-12.6,4.4-19.9c-3.9-18.3-23.1-26.5-39.1-16.6
			c-1.5,0.9-4.3,1.5-5.7,0.7c-6.8-3.3-13.4-7.2-20.1-10.9c0-36.2,0.1-72.3,0-108.5c0-19.6-4-38.2-13.1-55.8
			c-13.2-25.6-32.8-44.7-58.6-57c-22.8-10.9-47-13.7-72.1-10.1c-30.2,4.3-54.9,18.4-75,40.9c-21.3,23.8-31,52-31,83.7
			c0,36.5-0.1,73-0.2,109.5c-4.9,2.5-9.8,4.8-14.5,7.6c-2.9,1.7-4.9,1.8-7.9-0.2c-8.3-5.5-17.4-5.8-26-1c-8,4.4-12.2,11.6-12.7,21.2
			c-0.3,7.1,3,12.7,6.1,18.5c-1.1,2.7-2.2,5.4-3.2,8c-1,2.7-2,5.3-3,8c-1,1.3-2.6,2.6-2.7,4c-0.4,4.1-0.7,8.4,0,12.5
			c1,6.4,4.5,11.3,10.8,13.7c1.5,1,2.9,2.2,4.5,2.9c8.5,3.8,17,7.4,25.6,11.1c2.3,5,4.6,10,7,15c4.5,5.6,8.2,12.2,13.7,16.8
			c18.7,15.6,39.9,26.5,63.6,32.8c13.5,3.5,26.9,6.6,40.8,7.5C235.7,461.4,238.3,461.7,240.9,462z"/>
		<path class="st1" d="M444,337c1.6,6.5,3.7,12.9,4.7,19.5c0.9,6.3-2.6,11.2-7.2,15.4c-9.1,8.3-21,10.6-31.4,16.2
			c-0.3,0.2-0.6,0.5-1,0.7c-0.4,0.1-0.7,0.1-1.1,0.2c-4,0.9-8.1,1.8-12.1,2.8c-40.5,10.6-81.9,14.1-123.5,15
			c-22.6,0.5-45.2-0.9-67.8-1.9c-10.1-0.4-20.3-1.2-30.2-3c-20.7-3.7-41.3-8.3-61.9-12.4c-1.5-0.3-3-0.3-4.5-0.4
			c-8.5-3.7-17.1-7.3-25.6-11.1c-1.6-0.7-3-1.9-4.5-2.9c-2.2-2.7-5.4-5.2-6.5-8.3c-2.5-7-3.8-14.3-1.6-21.8c1-2.7,2-5.3,3-8
			c1.4,1.4,2.6,3.1,4.2,4.1c10.8,6.1,22.2,10.3,34.5,12.3c14.1,2.3,28,5.8,42.1,7.8c26.2,3.8,52.5,6,79,6c16.9,0,33.9,1.1,50.8,0.6
			c17.1-0.5,34.1-2.6,51.2-3.5c27.7-1.6,54.9-6.2,81.5-13.5C426.1,347.8,436.2,344.5,444,337z"/>
		<path class="st2" d="M444,337c-7.8,7.5-17.9,10.9-27.9,13.6c-26.7,7.3-53.8,12-81.5,13.5c-17.1,1-34.1,3-51.2,3.5
			c-16.9,0.5-33.8-0.6-50.8-0.6c-26.5,0-52.8-2.2-79-6c-14.1-2-28-5.5-42.1-7.8c-12.3-2-23.7-6.2-34.5-12.3
			c-1.6-0.9-2.8-2.7-4.2-4.1c1.1-2.7,2.2-5.4,3.2-8c5.5,3.2,11,2,16.1-0.7c9.6-5,17.6-12.1,20.7-22.5c2.3-7.6,6.7-11.7,13.7-14.2
			c1.5-0.5,2.9-1.6,4.3-2.5c-2.2,18.5,8.9,28.6,23.9,35c10.5,4.5,21.5,8.3,32.7,10.7c40.8,8.8,81.9,9.1,123.2,2.8
			c18.6-2.8,36.6-7.4,53.1-16.6c8-4.5,15.2-10,16.8-19.8c0.7-4.2,0.4-8.6,0.6-13c6.2,3,12.5,5.9,18.5,9.1c1,0.5,1.5,2.5,1.8,3.9
			c2.7,11.3,9.9,19.3,19.5,25.3c6.8,4.3,13.6,7.2,20.6,0.4C442.4,330.2,443.2,333.6,444,337z"/>
		<path class="st3" d="M131.1,282.8c0.1-36.5,0.2-73,0.2-109.5c0-31.8,9.7-59.9,31-83.7c20.1-22.5,44.8-36.5,75-40.9
			c25.1-3.6,49.3-0.8,72.1,10.1c25.8,12.3,45.4,31.4,58.6,57c9.1,17.6,13,36.2,13.1,55.8c0,36.2,0,72.3,0,108.5
			c-0.1,0.4-0.1,0.7-0.2,1.1c-5-2.1-10-4.1-15-6.2c0-0.7,0.1-1.4,0.1-2c-0.2-36,0.5-72-0.8-108c-1.6-42.8-24.3-73.3-61.8-91.7
			c-33.6-16.5-68.4-15.3-101.2,3.4c-33.4,19.1-53.1,48.3-54.9,86.8c-1.8,37.1-0.4,74.3-0.4,111.5c0,0.6,0,1.3,0.1,1.9
			c-5.1,2-10.2,4-15.3,5.9C131.5,282.9,131.3,282.9,131.1,282.8z"/>
		<path class="st2" d="M400.9,403c-4.3,5.7-7.7,12.5-13,17c-15.9,13.6-33.5,24.5-54,30.1c-2.4,0.6-4.7,1.6-7,2.4
			c-10,1.6-19.9,3.4-29.9,4.9c-10.1,1.4-20.3,3-30.4,3.6c-11.1,0.6-22.3,0.1-33.5,0.1c-13.9-1-27.4-4-40.8-7.5
			c-23.7-6.2-44.9-17.2-63.6-32.8c-5.4-4.5-9.2-11.1-13.7-16.8c6.8,1.3,13.7,2.4,20.5,3.9c34.4,7.4,69.4,10.2,104.5,10.9
			c22.9,0.5,45.9-0.4,68.8-1.9c19.2-1.2,38.4-3.8,57.4-6.6C378,408.6,389.4,405.5,400.9,403z"/>
		<path class="st4" d="M400.9,403c-11.5,2.5-23,5.6-34.6,7.3c-19.1,2.8-38.2,5.3-57.4,6.6c-22.9,1.5-45.9,2.4-68.8,1.9
			c-35.1-0.7-70.1-3.5-104.5-10.9c-6.8-1.5-13.7-2.6-20.5-3.9c-2.3-5-4.6-10-7-15c1.5,0.1,3,0.1,4.5,0.4
			c20.6,4.2,41.2,8.7,61.9,12.4c9.9,1.8,20.1,2.6,30.2,3c22.6,1,45.2,2.4,67.8,1.9c41.6-0.9,83-4.3,123.5-15c4-1,8-1.9,12.1-2.8
			C405.6,393.6,403.3,398.3,400.9,403z"/>
		<path class="st5" d="M380.9,281.3c0.1-0.4,0.1-0.7,0.2-1.1c6.7,3.7,13.3,7.5,20.1,10.9c1.5,0.7,4.2,0.2,5.7-0.7
			c16-9.8,35.2-1.7,39.1,16.6c1.6,7.4-1.3,13.6-4.4,19.9c-7,6.8-13.9,3.9-20.6-0.4c-9.6-6-16.7-14-19.5-25.3
			c-0.3-1.4-0.8-3.4-1.8-3.9c-6.1-3.2-12.3-6.1-18.5-9.1C381.1,285.8,381,283.5,380.9,281.3z"/>
		<path class="st5" d="M131,289c-1.4,0.8-2.8,1.9-4.3,2.5c-6.9,2.5-11.4,6.5-13.7,14.2c-3.1,10.5-11.2,17.5-20.7,22.5
			c-5.2,2.7-10.6,3.8-16.1,0.7c-3.1-5.8-6.4-11.4-6.1-18.5c0.5-9.5,4.7-16.7,12.7-21.2c8.6-4.8,17.7-4.5,26,1c3.1,2,5,1.9,7.9,0.2
			c4.7-2.8,9.7-5.1,14.5-7.6c0.2,0,0.3,0.1,0.5,0.2C131.4,285,131.2,287,131,289z"/>
		<path class="st6" d="M233.1,461.1c11.2,0,22.4,0.5,33.5-0.1c10.2-0.6,20.3-2.1,30.4-3.6c10-1.4,19.9-3.2,29.9-4.9
			c-1.6,0.9-3,2.3-4.7,2.7c-6.4,1.4-12.7,2.9-19.2,3.7c-9.9,1.3-19.9,2.1-29.9,3.1c-10.8,0-21.5,0-32.3,0
			C238.3,461.7,235.7,461.4,233.1,461.1z"/>
		<path class="st7" d="M69.9,344.9c-2.3,7.5-0.9,14.8,1.6,21.8c1.1,3.1,4.3,5.6,6.5,8.3c-6.3-2.4-9.9-7.3-10.8-13.7
			c-0.6-4.1-0.3-8.3,0-12.5C67.3,347.5,69,346.3,69.9,344.9z"/>
		<path class="st7" d="M240.9,462c10.8,0,21.5,0,32.3,0c-7.9,0.3-15.7,0.8-23.6,0.9C246.7,463,243.8,462.4,240.9,462z"/>
		<path class="st4" d="M409.1,388.8c0.3-0.2,0.6-0.5,1-0.7C409.7,388.3,409.4,388.5,409.1,388.8z"/>
		<path class="st8" d="M131,289c0.2-2,0.4-4,0.6-6c5.1-2,10.2-4,15.3-5.9c0,5.9-0.2,11.9,0,17.8c0.1,5.1,2.3,8.8,7.6,10.2
			c3.5,2.4,6.9,4.8,10.4,7.2c2.2,1.6,4.3,3.5,6.7,4.7c24.9,11.7,51.7,14.8,78.6,15.6c15.5,0.5,31.1-1.2,46.6-2.7
			c19.8-2,38.9-7.1,56.1-17.5c2.4-1.5,4.1-4.1,6.1-6.2c5.3-4,6.9-9.3,5.5-15.6c0.4-5.1,0.9-10.3,1.3-15.4c5,2.1,10,4.1,15,6.2
			c0.1,2.3,0.2,4.6,0.3,6.9c-0.2,4.3,0.1,8.7-0.6,13c-1.6,9.8-8.8,15.4-16.8,19.8c-16.5,9.2-34.6,13.8-53.1,16.6
			c-41.2,6.3-82.3,6-123.2-2.8c-11.2-2.4-22.2-6.2-32.7-10.7C139.9,317.6,128.8,307.6,131,289z"/>
		<path class="st6" d="M146.9,275.2c0-37.2-1.3-74.4,0.4-111.5c1.8-38.5,21.5-67.8,54.9-86.8c32.8-18.7,67.6-19.9,101.2-3.4
			c37.4,18.4,60.2,48.8,61.8,91.7c1.3,35.9,0.6,72,0.8,108c-1.3,0-2.7,0.2-4-0.2c-11.7-3.3-23.4-6.6-35-10.1c-0.8-0.2-1.3-1.3-2-2
			c1-1.1,1.9-2.3,2.9-3.4c15.5-16.3,25.1-35.2,27.6-57.9c5.5-49.4-21-87.7-62.8-105.4c-12-5.1-24.7-6.1-37.7-6.4
			c-42.5-1-82.7,29.8-94.1,69.6c-11.5,39.8-2.6,75,28.1,103.8c-2.1,1.2-4,2.7-6.2,3.4C170.9,268.2,158.9,271.6,146.9,275.2z"/>
		<path class="st5" d="M325,260.8c0.7,0.7,1.2,1.8,2,2c11.6,3.4,23.3,6.8,35,10.1c1.2,0.3,2.6,0.1,4,0.2c0,0.7-0.1,1.3-0.1,2
			c-0.4,5.1-0.9,10.3-1.3,15.4c-9.5-9.8-22-12-35.4-15.4c0,3.7-0.2,6.4,0,8.9c0.8,7.1-2.1,12.7-6.9,17.5
			c-6.8,6.6-15.4,9.6-24.4,11.9c-8.2,0.4-14.8-2.8-19.7-8.8c-0.8,0.1-1,0-1.1,0.1c-12.1,9.2-24.3,10.6-36.8,0.8
			c-0.7-0.6-3-0.2-3.7,0.5c-4,4.4-9,6.6-14.7,7.6c-8.6-0.3-16.2-3.9-23.2-8.3c-8-5-12.4-12.1-11.7-22.1c0.5-8.1,0-8.4-7.9-6.1
			c-5.6,1.6-11.2,3.4-16.5,5.7c-12,5.2-13.9,10.9-8.1,22.3c-5.3-1.3-7.5-5.1-7.6-10.2c-0.1-5.9,0-11.9,0-17.8c0-0.6,0-1.3-0.1-1.9
			c12-3.5,24-7,35.9-10.7c2.2-0.7,4.1-2.2,6.2-3.4c0.7,0.6,1.4,1.2,2,1.8c1,0.8,2,1.7,3,2.5c5,4.3,9.6,9.3,17.2,7.4
			c6.5,0,13,0,19.5,0c3.2,4,6.2,8,9.5,11.9c0.9,1,2.5,2,3.7,2c9.4-0.1,18.8-0.4,28.2-0.9c1.4-0.1,3.1-1.1,4.1-2.3
			c3.1-3.5,5.8-7.2,8.7-10.8c6.6,0,13.2,0.1,19.8,0.1c2.7-0.9,5.8-1.4,8.2-2.9c3.6-2.3,6.6-5.5,9.9-8.3
			C323.7,261.4,324.3,261.1,325,260.8z"/>
		<path class="st9" d="M154.5,305c-5.8-11.5-3.9-17.1,8.1-22.3c5.3-2.3,10.9-4.2,16.5-5.7c7.9-2.2,8.4-2,7.9,6.1
			c-0.6,10,3.8,17.1,11.7,22.1c7,4.4,14.6,8.1,23.2,8.3c3.4,3.9,6.8,7.7,10.2,11.6c-7.6-0.6-15.3-0.4-22.7-2
			c-14.9-3.2-29.7-7.2-44.5-11C161.4,309.8,158,307.4,154.5,305z"/>
		<path class="st9" d="M297.9,313.3c8.9-2.3,17.6-5.3,24.4-11.9c4.8-4.7,7.7-10.4,6.9-17.5c-0.3-2.6,0-5.2,0-8.9
			c13.4,3.4,26,5.6,35.4,15.4c1.3,6.3-0.3,11.6-5.5,15.6c-0.6,0.2-1.3,0.3-1.9,0.7C334.8,319.3,310.1,323,285,325
			C289.3,321.1,293.6,317.2,297.9,313.3z"/>
		<path class="st10" d="M285,325c25.1-2,49.8-5.7,72.2-18.2c0.6-0.3,1.2-0.4,1.9-0.7c-2,2.1-3.7,4.8-6.1,6.2
			c-17.2,10.4-36.3,15.5-56.1,17.5c-15.5,1.6-31.1,3.2-46.6,2.7c-26.9-0.8-53.7-3.9-78.6-15.6c-2.4-1.1-4.5-3.1-6.7-4.7
			c14.8,3.7,29.5,7.8,44.5,11c7.4,1.6,15.1,1.4,22.7,2c1.6,0.2,3.2,0.7,4.9,0.7C253,325.6,269,325.3,285,325z"/>
		<path class="st3" d="M325,260.8c-0.7,0.3-1.3,0.7-2,1c3.5-7.5,1.7-15.4,1.8-23.1c0.2-1.3,0.3-2.6,0.5-3.8c1.2-1.4,2.6-2.6,3.5-4.1
			c13.8-22.9,15.6-47.4,6.9-72.1c-18.7-52.7-83.4-72.3-128.6-39.4c-34.2,24.9-44,67.9-26.8,104.6c2.6,5.6,7,10.3,10.6,15.3
			c0.1,0.9,0.1,1.7,0.2,2.6c0,7.1,0,14.1,0,21.2c-0.7-0.6-1.4-1.2-2-1.8c-30.7-28.8-39.6-64-28.1-103.8
			c11.4-39.8,51.6-70.5,94.1-69.6c13,0.3,25.7,1.3,37.7,6.4c41.8,17.7,68.3,56,62.8,105.4c-2.5,22.7-12.1,41.6-27.6,57.9
			C326.9,258.4,326,259.6,325,260.8z"/>
		<path class="st11" d="M285,325c-16,0.3-32,0.6-48.1,0.8c-1.6,0-3.2-0.4-4.9-0.7c-3.4-3.9-6.8-7.7-10.2-11.6
			c5.7-1,10.7-3.2,14.7-7.6c0.7-0.7,3-1.1,3.7-0.5c12.5,9.9,24.7,8.5,36.8-0.8c0.1-0.1,0.3,0,1.1-0.1c4.9,5.9,11.5,9.1,19.7,8.8
			C293.6,317.2,289.3,321.1,285,325z"/>
		<path class="st8" d="M285.2,272.8c-2.9,3.6-5.7,7.3-8.7,10.8c-1,1.1-2.7,2.2-4.1,2.3c-9.4,0.5-18.8,0.7-28.2,0.9
			c-1.3,0-2.9-0.9-3.7-2c-3.3-3.9-6.4-7.9-9.5-11.9c0-1.3,0.1-2.6,0.1-4c2.1,0.2,4.3,0.5,6.4,0.7c8,0.5,16.1,1.7,24.1,1.4
			c7.9-0.3,15.7-2,23.5-3C285.1,269.6,285.1,271.2,285.2,272.8z"/>
		<path class="st8" d="M324.8,238.6c-0.1,7.8,1.7,15.7-1.8,23.1c-3.3,2.8-6.3,5.9-9.9,8.3c-2.3,1.5-5.4,2-8.2,2.9
			c-0.2-5.6-0.4-11.2-0.6-16.8c3-2.3,6.1-4.4,8.9-6.9C317.2,245.8,321,242.2,324.8,238.6z"/>
		<path class="st8" d="M191.1,262.9c0-7.1,0-14.1,0-21.2c3,2.7,6,5.6,9.2,8.1c3.4,2.6,7.2,4.8,10.8,7.2c0.1,5.3,0.2,10.5,0.2,15.8
			c-7.6,1.9-12.3-3.1-17.2-7.4C193.1,264.6,192.1,263.7,191.1,262.9z"/>
		<path class="st11" d="M304.3,256.2c0.2,5.6,0.4,11.2,0.6,16.8c-6.6,0-13.2-0.1-19.8-0.1c0-1.6-0.1-3.3-0.1-4.9
			c0.1-12.7,3.4-15.9,14.2-13.7C301,254.6,302.7,255.5,304.3,256.2z"/>
		<path class="st11" d="M211.3,272.9c-0.1-5.3-0.2-10.5-0.2-15.8c4.1-3.3,8.8-3.5,13.6-2.8c4,0.6,6.7,2.6,6.3,7.3
			c-0.2,2.5,0,4.9,0,7.4c0,1.3-0.1,2.6-0.1,4C224.3,272.9,217.8,272.9,211.3,272.9z"/>
		<path class="st5" d="M231,268.9c0-2.5-0.2-5,0-7.4c0.4-4.7-2.3-6.7-6.3-7.3c-4.8-0.7-9.6-0.4-13.6,2.8c-3.6-2.4-7.3-4.6-10.8-7.2
			c-3.2-2.5-6.1-5.4-9.2-8.1c-0.1-0.9-0.1-1.7-0.2-2.6c0-17.6-0.1-35.2-0.1-52.9c0-4.4,0.6-8.8,1-13.2c1.6-2.2,3.5-4.3,4.8-6.7
			c2.4-4.5,3.5-10.2,6.8-13.7c6.4-6.6,13.6-12.6,21.3-17.5c15.4-9.8,32.4-11.1,50-7.1c10.4,2.3,18.8,7.9,26.9,14.5
			c9.2,7.5,15.5,16.7,19.6,27.7c1.3,3.6,2.5,7.3,3.8,10.9c0.1,17.9,0.1,35.7,0.2,53.6c-0.2,1.3-0.3,2.6-0.5,3.8
			c-3.8,3.6-7.6,7.2-11.6,10.6c-2.8,2.5-5.9,4.6-8.9,6.9c-1.7-0.6-3.3-1.6-5.1-1.9c-10.9-2.2-14.1,1-14.2,13.7
			c-7.8,1.1-15.7,2.7-23.5,3c-8,0.3-16.1-0.8-24.1-1.4C235.2,269.4,233.1,269.1,231,268.9z M215,222.6c0,8.5,7.2,15.4,15.8,15.3
			c8-0.1,15.4-7.1,15.4-14.7c0.1-9.3-6.9-16.8-15.6-16.8C222,206.3,214.9,213.7,215,222.6z M285.6,206.9c-9.2,0-15.6,6.5-15.5,15.8
			c0.1,8.6,7.3,15.3,16.5,15.1c7.7-0.1,15.2-7.9,15.2-15.8C301.7,214,294.2,206.9,285.6,206.9z M256.9,261.9c9.6,0,18-4.1,21.8-10.5
			c1-1.7,0-4.4,0-6.7c-1.8,0.7-3.7,1.2-5.2,2.3c-2.8,2-5.1,5-8.1,6.3c-8.6,3.7-16.6,1-22.5-6.4c-1.1-1.3-3.5-1.5-5.2-2.3
			c-0.3,2-0.8,3.9-0.8,5.9c0,0.8,1,1.7,1.7,2.4C243.5,259.2,250.3,261.8,256.9,261.9z"/>
		<path class="st6" d="M191.9,173.1c-0.3,4.4-1,8.8-1,13.2c-0.1,17.6,0,35.2,0.1,52.9c-3.6-5.1-8-9.8-10.6-15.3
			c-17.2-36.7-7.4-79.7,26.8-104.6c45.2-32.9,109.8-13.3,128.6,39.4c8.8,24.7,7,49.2-6.9,72.1c-0.9,1.5-2.3,2.7-3.5,4.1
			c-0.1-17.9-0.1-35.7-0.2-53.6c-0.9-23.2-12.8-40.2-31.5-52C253.4,104,201.8,126.7,191.9,173.1z"/>
		<path class="st12" d="M191.9,173.1c9.9-46.4,61.5-69.1,101.7-43.9c18.8,11.8,30.6,28.8,31.5,52c-1.3-3.6-2.4-7.3-3.8-10.9
			c-4.1-10.9-10.4-20.2-19.6-27.7c-8.1-6.6-16.5-12.2-26.9-14.5c-17.6-4-34.6-2.7-50,7.1c-7.7,4.9-14.9,11-21.3,17.5
			c-3.4,3.5-4.4,9.2-6.8,13.7C195.4,168.8,193.5,170.9,191.9,173.1z"/>
		<path class="st13" d="M215,222.6c0-8.9,7-16.3,15.6-16.2c8.7,0,15.6,7.6,15.6,16.8c-0.1,7.6-7.4,14.7-15.4,14.7
			C222.2,238,215,231,215,222.6z"/>
		<path class="st13" d="M285.6,206.9c8.5,0,16.1,7.1,16.1,15.2c0,7.9-7.4,15.7-15.2,15.8c-9.2,0.1-16.4-6.5-16.5-15.1
			C270,213.4,276.4,206.9,285.6,206.9z"/>
		<path class="st13" d="M256.9,261.9c-6.6-0.2-13.4-2.7-18.5-8.9c-0.6-0.8-1.7-1.6-1.7-2.4c0-2,0.5-3.9,0.8-5.9
			c1.8,0.7,4.2,1,5.2,2.3c5.9,7.4,13.9,10.1,22.5,6.4c3-1.3,5.3-4.4,8.1-6.3c1.5-1.1,3.5-1.5,5.2-2.3c0.1,2.2,1,5,0,6.7
			C274.9,257.9,266.5,261.9,256.9,261.9z"/>
	</g>
</g>
</svg>
