<?xml version="1.0" encoding="utf-8"?>
<!-- Generator: Adobe Illustrator 22.1.0, SVG Export Plug-In . SVG Version: 6.00 Build 0)  -->
<svg version="1.1" id="svg" xmlns="http://www.w3.org/2000/svg" xmlns:xlink="http://www.w3.org/1999/xlink" x="0px" y="0px"
	 viewBox="0 0 400 369.3" style="enable-background:new 0 0 400 369.3;" xml:space="preserve">
<style type="text/css">
	.st0{fill:#04C43C;}
	.st1{fill:#048404;}
	.st2{fill:#04B440;}
</style>
<g id="svgg">
	<path id="path0" class="st0" d="M313,59.5v12.3h5.9h5.9l-0.1-12.2l-0.1-12.2l-5.8-0.1l-5.8-0.1V59.5 M174.6,66.3l-0.1,6.3L162,72.7
		l-12.5,0.1v6.2v6.2h-6.2h-6.2v6c0,7.4,0.7,6.7-6.7,6.7h-6l-0.1,12.5l-0.1,12.5l-6.1,0.1L112,123v24.6c0,13.6-0.1,24.9-0.2,25.1
		c-0.2,0.4-1,0.5-6.4,0.5h-6.2v31.3v31.3h-6.2h-6.2l-0.1,12.5l-0.1,12.5l-6.3,0.1l-6.3,0.1l-0.1,6.3l-0.1,6.3l-6.1,0.1l-6.1,0.1
		l-0.1,6.1l-0.1,6.1l-6.3,0.1l-6.3,0.1v5.9v5.9h18.7c16.8,0,18.8,0,18.9,0.5c0.1,0.3,0.2,3.1,0.2,6.4v5.9l25.1,0.1l25.1,0.1l0.1,6.1
		l0.1,6.1h43.6h43.6v-6.2v-6.2h6.2h6.2v-5.9v-5.9h-6.2h-6.2l-0.1-6.3l-0.1-6.3l-6.3-0.1l-6.3-0.1v-6.2v-6.2h-6.2
		c-6.2,0-6.2,0-6.4-0.7c-0.1-0.4-0.1-9-0.1-19.1l0.1-18.5l6.3-0.1l6.3-0.1l0.1-6.3l0.1-6.3l6.3-0.1l6.3-0.1l0.1-6.3l0.1-6.3l6.1-0.1
		l6.1-0.1l0.1-6.1l0.1-6.1h25.4h25.4l0.1,6.1l0.1,6.1l6.1,0.1l6.1,0.1l0.1,6.3l0.1,6.3l6.3,0.1l6.3,0.1l0.1,6.3l0.1,6.3h12.1h12.1
		l0.1-6.3l0.1-6.3l6.3-0.1l6.3-0.1v-37.2v-37.2h-5.9c-7.7,0-6.8,0.8-6.8-6.5v-6.2l-12.5-0.1l-12.5-0.1l-0.1-6.1l-0.1-6.1h-18.5
		h-18.5v12.1v12.1l6.3,0.1l6.3,0.1l0.1,6.1l0.1,6.1l6.1,0.1l6.1,0.1l0.1,6.3l0.1,6.3l6.3,0.1l6.3,0.1l0.1,6.6l0.1,6.6h-6.7h-6.7
		v-6.2v-6.2h-12.6h-12.6v-6.4v-6.4l-6.3-0.1l-6.3-0.1l-0.1-6.1l-0.1-6.1h-18.5h-18.5v6.2v6.2h-6.2h-6.2l-0.1,6.3l-0.1,6.3l-6.3,0.1
		l-6.3,0.1v6.2v6.2h-6.2h-6.2l-0.1,12.5l-0.1,12.5l-6.3,0.1l-6.3,0.1v5.9v5.9l6.3,0.1l6.3,0.1v12.9v12.9l-6.5,0.1
		c-5,0.1-6.5,0-6.7-0.3c-0.1-0.2-0.2-3.1-0.2-6.4l0-6H168h-5.7l-0.1,6.3l-0.1,6.3l-19.1,0.1l-19.1,0.1l-0.2-0.7
		c-0.1-0.4-0.1-3.3-0.1-6.6l0.1-5.9l12.5-0.1l12.5-0.1V223v-12.3h-6.2h-6.2l0.1-6.6l0.1-6.6l18.7-0.1l18.7-0.1l0.1-12.5l0.1-12.5
		l6.3-0.1l6.3-0.1l0.1-6.3l0.1-6.3l6.1-0.1l6.1-0.1l0.1-6.1l0.1-6.1l6.3-0.1l6.3-0.1v-5.9v-5.9h-31h-31l-0.1,6.3l-0.1,6.3l-12.5,0.1
		c-9,0.1-12.6,0-12.9-0.3c-0.6-0.5-0.6-12.4-0.1-12.9c0.3-0.3,2.1-0.4,6.4-0.4h6v-6.2v-6.2h12.6h12.6l0.1-6.3l0.1-6.3l56.5-0.1
		l56.5-0.1v-5.8v-5.8h-5.9c-7.7,0-6.8,0.8-6.8-6.5v-6.2h-6.2h-6.2v-6.2v-6.2l-12.5-0.1l-12.5-0.1l-0.1-6.3l-0.1-6.3h-24.8h-24.8
		L174.6,66.3"/>
	<path id="path1" class="st1" d="M299.4,59.1v25.1h-6.2H287v6.2v6.2h-5.8h-5.8v-6.2v-6.2h-6.4h-6.4v-6.4v-6.4h-6.2h-6.2v-6.2v-6.2
		h-12.6h-12.6l-0.1-6.3l-0.1-6.3l-25.7-0.1l-25.7-0.1v6.4v6.4h-12.6h-12.6v6.2v6.2l-6.3,0.1l-6.3,0.1l-0.1,6.3l-0.1,6.3h-6.2h-6.2
		v6.2v6.2l-6.3,0.1l-6.3,0.1l-0.1,12.5l-0.1,12.5h-6.2h-6.2v25.1V172l-6.3,0.1l-6.3,0.1l-0.1,31.4L85.6,235h-6.2h-6.2v12.6v12.6
		h-6.4h-6.4v6.4v6.4h-6.2h-6.2v6.2v6.2h-6.1H36v6.8v6.8h6.1h6.1v6.4v6.4h18.8h18.8v6.2v6.2h25.1h25.1v6.1v6.1h44.7h44.7v-6.1V324
		h6.2h6.2v-6.2v-6.2h12.6h12.6v-6.8V298h-12.6h-12.6v-6.4v-6.4h-6.2h-6.2V279v-6.2h-6.4h-6.4v-18.3v-18.3l6.3-0.1l6.3-0.1l0.1-6.3
		l0.1-6.3h6.2h6.2v-6.2v-6.2h24.7H287v6.2v6.2h6.2h6.2l0.1,6.3l0.1,6.3l6.3,0.1l6.3,0.1V255v18.8h6.8h6.8v-6.2v-6.2l6.1-0.1l6.1-0.1
		l0.1-6.3l0.1-6.3h6.4h6.4v-12.6v-12.6h6.2h6.2v-38.3v-38.3h-6.2h-6.2v-6.2v-6.2h-6.4h-6.4v-6.4v-6.4h-12.6H313v-6.2v-6.2h-6.2h-6.2
		v-5.8v-5.8h6.2h6.2v-6.4v-6.4h6.4h6.4v-6.2v-6.2h6.2h6.2V59.6V46.4h-6.2h-6.2v-6.2V34h-13.2h-13.2V59.1 M325.1,59.6v12.6l-6.3-0.1
		l-6.3-0.1l-0.1-12.1c0-6.7,0-12.3,0.1-12.5c0.1-0.3,1.7-0.4,6.4-0.4h6.2V59.6 M224.7,65.8l0.1,6.1l12.4,0.2l12.4,0.2l0.1,5.9
		c0.1,7.3-0.6,6.7,6.7,6.8l5.9,0.1l0.1,6.1l0.1,6.1l6.1,0.1l6.1,0.1v6.2v6.2l-56.5,0.2l-56.5,0.2l-0.1,6.1l-0.1,6.1h-12.2
		c-9.8,0-12.3,0.1-12.6,0.4c-0.2,0.3-0.4,2.6-0.4,6.3l-0.1,5.9l-6.1,0.2l-6.1,0.2v6.1v6.1h12.4h12.4l0.1-6.1l0.1-6.1l31.4,0.1
		l31.4,0.1v6.1v6.1l-6.2,0.2l-6.2,0.2l-0.2,6.2l-0.2,6.2l-6.2,0.2l-6.2,0.2l-0.1,6.1l-0.1,6.1l-6.1,0.1l-6.1,0.1l-0.1,12.5
		l-0.1,12.5h-18.6c-14,0-18.6,0.1-18.9,0.4c-0.4,0.4-0.5,11.3-0.1,12c0.2,0.3,1.9,0.4,6.3,0.5l6,0.1V223v12.4l-12.4,0.2l-12.4,0.2
		v6.1v6.1l18.7,0.1l18.7,0.1l0.1-6.1l0.1-6.1h6.2h6.2l0.2,6.1l0.2,6.1l6.1,0.1l6.1,0.1v-12.4v-12.4l-6.1-0.1l-6.1-0.1l-0.1-6.3
		l-0.1-6.3l6.1-0.1l6.1-0.1l0.2-12.4l0.2-12.4l6.2-0.2l6.2-0.2l0.2-6.2l0.2-6.2l6.1-0.1l6.1-0.1l0.1-6.1l0.1-6.1l6.2-0.2
		c3.4-0.1,6.2-0.2,6.3-0.2c0,0,0.1-2.8,0.2-6.2l0.1-6.1l18.4-0.1c13.2-0.1,18.5,0,18.8,0.3c0.3,0.3,0.4,1.8,0.5,6.3l0.1,5.9l6.1,0.2
		l6.1,0.2l0.2,6.1l0.2,6.1l12.5,0.1l12.5,0.1l-0.1-6.1l-0.1-6.1l-5.9-0.1c-7.3-0.1-6.6,0.6-6.7-6.8l-0.1-5.9l-6.1-0.1l-6.1-0.1
		l0.1-12.5l0.1-12.5l18.7-0.1c10.3,0,18.7,0,18.8,0c0,0,0.1,2.9,0.2,6.3l0.2,6.2l12.4,0.2l12.4,0.2l0.1,6.1l0.1,6.1l6.1,0.1l6.1,0.1
		v37.7V223l-6.1,0.1l-6.1,0.1l-0.1,6.1l-0.1,6.1h-12.6h-12.6l-0.1-6.1l-0.1-6.1l-6.1-0.1l-6.1-0.1l-0.2-6.2l-0.2-6.2l-6.2-0.2
		l-6.2-0.2l-0.2-6.2l-0.2-6.2h-24.8h-24.8l-0.2,6.2l-0.2,6.2l-6.2,0.2l-6.2,0.2l-0.2,6.2l-0.2,6.2l-6.1,0.1l-6.1,0.1l-0.1,6.1
		l-0.1,6.1l-6.2,0.2l-6.2,0.2l-0.1,18.7l-0.1,18.7h6c7.4,0,6.7-0.7,6.8,6.7l0.1,5.9l6.1,0.2l6.1,0.2l0.1,6.1l0.1,6.1h6
		c7.4,0,6.7-0.7,6.6,6.7l-0.1,5.9L231,311l-6.2,0.2l-0.2,6.2l-0.2,6.2h-43.9h-43.9l-0.2-6.2l-0.2-6.2l-25-0.2l-25-0.2l-0.2-6.1
		l-0.2-6.1l-18.6-0.2l-18.6-0.2l-0.1-6.3l-0.1-6.3l6.1-0.1l6.1-0.1l0.2-6.2l0.2-6.2l6.2-0.2l6.2-0.2l0.1-6.1l0.1-6.1l6.1-0.1
		l6.1-0.1l0.2-12.4l0.2-12.4l6-0.1c4.4-0.1,6.1-0.2,6.3-0.5c0.1-0.2,0.2-14.4,0.2-31.5l0-31.1l6.1-0.1l6.1-0.1l0.2-25l0.2-25
		l6.2-0.2l6.2-0.2l0.2-12.4l0.2-12.4l6.1-0.2l6.1-0.2l0.1-6.1l0.1-6.1h6c7.4,0,6.7,0.7,6.7-6.7v-6l12.5-0.1l12.5-0.1l0.1-6.1
		l0.1-6.1h25.1h25.1L224.7,65.8 M300.1,173c-0.1,0.2-0.1,3-0.1,6.3l0.1,5.9h6.1h6.1V179v-6.2l-6-0.1
		C301.6,172.6,300.2,172.7,300.1,173"/>
	<path id="path2" class="st2" d="M312.5,47.4c-0.1,0.2-0.1,5.8-0.1,12.5l0.1,12.1l6.3,0.1l6.3,0.1V59.6V47h-6.2
		C314.2,47,312.6,47.1,312.5,47.4 M324.7,59.6l0.1,12.2h-5.9H313V59.5V47.3l5.8,0.1l5.8,0.1L324.7,59.6 M174.3,65.8l-0.1,6.1
		L161.7,72l-12.5,0.1v6c0,7.4,0.7,6.7-6.7,6.7h-6l-0.1,6.1l-0.1,6.1l-6.1,0.2l-6.1,0.2l-0.2,12.4l-0.2,12.4l-6.2,0.2l-6.2,0.2
		l-0.2,25l-0.2,25l-6.1,0.1l-6.1,0.1l0,31.1c0,17.1-0.1,31.3-0.2,31.5c-0.2,0.3-1.9,0.4-6.3,0.5l-6,0.1l-0.2,12.4l-0.2,12.4
		l-6.1,0.1l-6.1,0.1l-0.1,6.1l-0.1,6.1l-6.2,0.2l-6.2,0.2l-0.2,6.2l-0.2,6.2l-6.1,0.1l-6.1,0.1l0.1,6.3l0.1,6.3l18.6,0.2l18.6,0.2
		l0.2,6.1l0.2,6.1l25,0.2l25,0.2l0.2,6.2l0.2,6.2h43.9h43.9l0.2-6.2l0.2-6.2l6.2-0.2l6.2-0.2l0.1-5.9c0.1-7.4,0.8-6.7-6.6-6.7h-6
		l-0.1-6.1l-0.1-6.1l-6.1-0.2l-6.1-0.2l-0.1-5.9c-0.1-7.4,0.6-6.7-6.8-6.7h-6l0.1-18.7l0.1-18.7l6.2-0.2l6.2-0.2l0.1-6.1l0.1-6.1
		l6.1-0.1l6.1-0.1l0.2-6.2l0.2-6.2l6.2-0.2l6.2-0.2l0.2-6.2l0.2-6.2h24.8h24.8l0.2,6.2l0.2,6.2l6.2,0.2l6.2,0.2l0.2,6.2l0.2,6.2
		l6.1,0.1l6.1,0.1l0.1,6.1l0.1,6.1h12.6h12.6l0.1-6.1l0.1-6.1l6.1-0.1l6.1-0.1v-37.7v-37.7l-6.1-0.1l-6.1-0.1l-0.1-6.1l-0.1-6.1
		l-12.4-0.2l-12.4-0.2l-0.2-6.2c-0.1-3.4-0.2-6.2-0.2-6.3c0,0-8.5,0-18.8,0l-18.7,0.1l-0.1,12.5l-0.1,12.5l6.1,0.1l6.1,0.1l0.1,5.9
		c0.1,7.3-0.6,6.7,6.7,6.8l5.9,0.1l0.1,6.1l0.1,6.1l-12.5-0.1l-12.5-0.1l-0.2-6.1l-0.2-6.1l-6.1-0.2l-6.1-0.2l-0.1-5.9
		c-0.1-4.5-0.2-6-0.5-6.3c-0.3-0.2-5.6-0.3-18.8-0.3l-18.4,0.1l-0.1,6.1c0,3.4-0.1,6.2-0.2,6.2c0,0-2.9,0.1-6.3,0.2l-6.2,0.2
		l-0.1,6.1l-0.1,6.1l-6.1,0.1l-6.1,0.1l-0.2,6.2l-0.2,6.2l-6.2,0.2l-6.2,0.2l-0.2,12.4l-0.2,12.4l-6.1,0.1l-6.1,0.1l0.1,6.3l0.1,6.3
		l6.1,0.1l6.1,0.1v12.4V248l-6.1-0.1l-6.1-0.1l-0.2-6.1l-0.2-6.1H168h-6.2l-0.1,6.1l-0.1,6.1l-18.7-0.1l-18.7-0.1v-6.1v-6.1
		l12.4-0.2l12.4-0.2V223v-12.4l-6-0.1c-4.4-0.1-6.1-0.2-6.3-0.5c-0.4-0.6-0.3-11.6,0.1-12c0.3-0.3,4.9-0.4,18.9-0.4h18.6l0.1-12.5
		l0.1-12.5l6.1-0.1l6.1-0.1l0.1-6.1l0.1-6.1l6.2-0.2l6.2-0.2l0.2-6.2l0.2-6.2l6.2-0.2l6.2-0.2v-6.1v-6.1l-31.4-0.1l-31.4-0.1
		l-0.1,6.1l-0.1,6.1h-12.4h-12.4v-6.1v-6.1l6.1-0.2l6.1-0.2l0.1-5.9c0.1-3.7,0.2-6,0.4-6.3c0.3-0.3,2.8-0.4,12.6-0.4h12.2l0.1-6.1
		l0.1-6.1l56.5-0.2l56.5-0.2v-6.2v-6.2l-6.1-0.1l-6.1-0.1l-0.1-6.1l-0.1-6.1l-5.9-0.1c-7.3-0.1-6.6,0.6-6.7-6.8l-0.1-5.9l-12.4-0.2
		L224.8,72l-0.1-6.1l-0.1-6.1h-25.1h-25.1L174.3,65.8 M224.4,66.3l0.1,6.3l12.5,0.1l12.5,0.1v6.2v6.2h6.2h6.2v6.2
		c0,7.3-0.8,6.5,6.8,6.5h5.9v5.8v5.8l-56.5,0.1l-56.5,0.1l-0.1,6.3l-0.1,6.3h-12.6h-12.6v6.2v6.2h-6c-4.3,0-6.1,0.1-6.4,0.4
		c-0.6,0.6-0.5,12.5,0.1,12.9c0.3,0.2,3.9,0.3,12.9,0.3l12.5-0.1l0.1-6.3l0.1-6.3h31h31v5.9v5.9l-6.3,0.1l-6.3,0.1l-0.1,6.1
		l-0.1,6.1l-6.1,0.1l-6.1,0.1l-0.1,6.3l-0.1,6.3l-6.3,0.1l-6.3,0.1l-0.1,12.5l-0.1,12.5l-18.7,0.1l-18.7,0.1l-0.1,6.6l-0.1,6.6h6.2
		h6.2V223v12.3l-12.5,0.1l-12.5,0.1l-0.1,5.9c0,3.2,0,6.2,0.1,6.6l0.2,0.7l19.1-0.1l19.1-0.1l0.1-6.3l0.1-6.3h5.7h5.7l0,6
		c0,3.3,0.1,6.2,0.2,6.4c0.2,0.3,1.7,0.4,6.7,0.3l6.5-0.1v-12.9v-12.9l-6.3-0.1l-6.3-0.1v-5.9v-5.9l6.3-0.1l6.3-0.1l0.1-12.5
		l0.1-12.5h6.2h6.2v-6.2v-6.2l6.3-0.1l6.3-0.1l0.1-6.3l0.1-6.3h6.2h6.2v-6.2v-6.2h18.5h18.5l0.1,6.1l0.1,6.1l6.3,0.1l6.3,0.1v6.4
		v6.4h12.6h12.6v6.2v6.2h6.7h6.7l-0.1-6.6l-0.1-6.6l-6.3-0.1l-6.3-0.1l-0.1-6.3l-0.1-6.3l-6.1-0.1l-6.1-0.1l-0.1-6.1l-0.1-6.1
		l-6.3-0.1l-6.3-0.1v-12.1V123h18.5h18.5l0.1,6.1l0.1,6.1l12.5,0.1l12.5,0.1v6.2c0,7.3-0.8,6.5,6.8,6.5h5.9v37.2v37.2l-6.3,0.1
		l-6.3,0.1l-0.1,6.3l-0.1,6.3h-12.1H313l-0.1-6.3l-0.1-6.3l-6.3-0.1l-6.3-0.1l-0.1-6.3l-0.1-6.3l-6.1-0.1l-6.1-0.1l-0.1-6.1
		l-0.1-6.1h-25.4h-25.4l-0.1,6.1l-0.1,6.1l-6.1,0.1l-6.1,0.1l-0.1,6.3l-0.1,6.3l-6.3,0.1l-6.3,0.1l-0.1,6.3l-0.1,6.3l-6.3,0.1
		l-6.3,0.1l-0.1,18.5c0,10.2,0,18.8,0.1,19.1c0.2,0.7,0.2,0.7,6.4,0.7h6.2v6.2v6.2l6.3,0.1l6.3,0.1l0.1,6.3l0.1,6.3h6.2h6.2v5.9v5.9
		h-6.2h-6.2v6.2v6.2h-43.6h-43.6L137,317l-0.1-6.1l-25.1-0.1l-25.1-0.1v-5.9c0-3.2-0.1-6.1-0.2-6.4c-0.2-0.4-2.1-0.5-18.9-0.5H49
		v-5.9v-5.9l6.3-0.1l6.3-0.1l0.1-6.1l0.1-6.1l6.1-0.1l6.1-0.1l0.1-6.3l0.1-6.3l6.3-0.1l6.3-0.1l0.1-12.5l0.1-12.5h6.2h6.2v-31.3
		v-31.3h6.2c5.4,0,6.2-0.1,6.4-0.5c0.1-0.3,0.2-11.6,0.2-25.1V123l6.1-0.1l6.1-0.1l0.1-12.5l0.1-12.5h6c7.4,0,6.7,0.7,6.7-6.7v-6
		h6.2h6.2v-6.2v-6.2l12.5-0.1l12.5-0.1l0.1-6.3l0.1-6.3h24.8h24.8L224.4,66.3 M312.2,179v6.2h-6.1h-6.1l-0.1-5.9
		c0-3.2,0-6.1,0.1-6.3c0.1-0.3,1.4-0.4,6.1-0.3l6,0.1V179"/>
	<path id="path3" class="st2" d="M312.5,47.4c-0.1,0.2-0.1,5.8-0.1,12.5l0.1,12.1l6.3,0.1l6.3,0.1V59.6V47h-6.2
		C314.2,47,312.6,47.1,312.5,47.4 M324.7,59.6l0.1,12.2h-5.9H313V59.5V47.3l5.8,0.1l5.8,0.1L324.7,59.6 M174.3,65.8l-0.1,6.1
		L161.7,72l-12.5,0.1v6c0,7.4,0.7,6.7-6.7,6.7h-6l-0.1,6.1l-0.1,6.1l-6.1,0.2l-6.1,0.2l-0.2,12.4l-0.2,12.4l-6.2,0.2l-6.2,0.2
		l-0.2,25l-0.2,25l-6.1,0.1l-6.1,0.1l0,31.1c0,17.1-0.1,31.3-0.2,31.5c-0.2,0.3-1.9,0.4-6.3,0.5l-6,0.1l-0.2,12.4l-0.2,12.4
		l-6.1,0.1l-6.1,0.1l-0.1,6.1l-0.1,6.1l-6.2,0.2l-6.2,0.2l-0.2,6.2l-0.2,6.2l-6.1,0.1l-6.1,0.1l0.1,6.3l0.1,6.3l18.6,0.2l18.6,0.2
		l0.2,6.1l0.2,6.1l25,0.2l25,0.2l0.2,6.2l0.2,6.2h43.9h43.9l0.2-6.2l0.2-6.2l6.2-0.2l6.2-0.2l0.1-5.9c0.1-7.4,0.8-6.7-6.6-6.7h-6
		l-0.1-6.1l-0.1-6.1l-6.1-0.2l-6.1-0.2l-0.1-5.9c-0.1-7.4,0.6-6.7-6.8-6.7h-6l0.1-18.7l0.1-18.7l6.2-0.2l6.2-0.2l0.1-6.1l0.1-6.1
		l6.1-0.1l6.1-0.1l0.2-6.2l0.2-6.2l6.2-0.2l6.2-0.2l0.2-6.2l0.2-6.2h24.8h24.8l0.2,6.2l0.2,6.2l6.2,0.2l6.2,0.2l0.2,6.2l0.2,6.2
		l6.1,0.1l6.1,0.1l0.1,6.1l0.1,6.1h12.6h12.6l0.1-6.1l0.1-6.1l6.1-0.1l6.1-0.1v-37.7v-37.7l-6.1-0.1l-6.1-0.1l-0.1-6.1l-0.1-6.1
		l-12.4-0.2l-12.4-0.2l-0.2-6.2c-0.1-3.4-0.2-6.2-0.2-6.3c0,0-8.5,0-18.8,0l-18.7,0.1l-0.1,12.5l-0.1,12.5l6.1,0.1l6.1,0.1l0.1,5.9
		c0.1,7.3-0.6,6.7,6.7,6.8l5.9,0.1l0.1,6.1l0.1,6.1l-12.5-0.1l-12.5-0.1l-0.2-6.1l-0.2-6.1l-6.1-0.2l-6.1-0.2l-0.1-5.9
		c-0.1-4.5-0.2-6-0.5-6.3c-0.3-0.2-5.6-0.3-18.8-0.3l-18.4,0.1l-0.1,6.1c0,3.4-0.1,6.2-0.2,6.2c0,0-2.9,0.1-6.3,0.2l-6.2,0.2
		l-0.1,6.1l-0.1,6.1l-6.1,0.1l-6.1,0.1l-0.2,6.2l-0.2,6.2l-6.2,0.2l-6.2,0.2l-0.2,12.4l-0.2,12.4l-6.1,0.1l-6.1,0.1l0.1,6.3l0.1,6.3
		l6.1,0.1l6.1,0.1v12.4V248l-6.1-0.1l-6.1-0.1l-0.2-6.1l-0.2-6.1H168h-6.2l-0.1,6.1l-0.1,6.1l-18.7-0.1l-18.7-0.1v-6.1v-6.1
		l12.4-0.2l12.4-0.2V223v-12.4l-6-0.1c-4.4-0.1-6.1-0.2-6.3-0.5c-0.4-0.6-0.3-11.6,0.1-12c0.3-0.3,4.9-0.4,18.9-0.4h18.6l0.1-12.5
		l0.1-12.5l6.1-0.1l6.1-0.1l0.1-6.1l0.1-6.1l6.2-0.2l6.2-0.2l0.2-6.2l0.2-6.2l6.2-0.2l6.2-0.2v-6.1v-6.1l-31.4-0.1l-31.4-0.1
		l-0.1,6.1l-0.1,6.1h-12.4h-12.4v-6.1v-6.1l6.1-0.2l6.1-0.2l0.1-5.9c0.1-3.7,0.2-6,0.4-6.3c0.3-0.3,2.8-0.4,12.6-0.4h12.2l0.1-6.1
		l0.1-6.1l56.5-0.2l56.5-0.2v-6.2v-6.2l-6.1-0.1l-6.1-0.1l-0.1-6.1l-0.1-6.1l-5.9-0.1c-7.3-0.1-6.6,0.6-6.7-6.8l-0.1-5.9l-12.4-0.2
		L224.8,72l-0.1-6.1l-0.1-6.1h-25.1h-25.1L174.3,65.8 M224.4,66.3l0.1,6.3l12.5,0.1l12.5,0.1v6.2v6.2h6.2h6.2v6.2
		c0,7.3-0.8,6.5,6.8,6.5h5.9v5.8v5.8l-56.5,0.1l-56.5,0.1l-0.1,6.3l-0.1,6.3h-12.6h-12.6v6.2v6.2h-6c-4.3,0-6.1,0.1-6.4,0.4
		c-0.6,0.6-0.5,12.5,0.1,12.9c0.3,0.2,3.9,0.3,12.9,0.3l12.5-0.1l0.1-6.3l0.1-6.3h31h31v5.9v5.9l-6.3,0.1l-6.3,0.1l-0.1,6.1
		l-0.1,6.1l-6.1,0.1l-6.1,0.1l-0.1,6.3l-0.1,6.3l-6.3,0.1l-6.3,0.1l-0.1,12.5l-0.1,12.5l-18.7,0.1l-18.7,0.1l-0.1,6.6l-0.1,6.6h6.2
		h6.2V223v12.3l-12.5,0.1l-12.5,0.1l-0.1,5.9c0,3.2,0,6.2,0.1,6.6l0.2,0.7l19.1-0.1l19.1-0.1l0.1-6.3l0.1-6.3h5.7h5.7l0,6
		c0,3.3,0.1,6.2,0.2,6.4c0.2,0.3,1.7,0.4,6.7,0.3l6.5-0.1v-12.9v-12.9l-6.3-0.1l-6.3-0.1v-5.9v-5.9l6.3-0.1l6.3-0.1l0.1-12.5
		l0.1-12.5h6.2h6.2v-6.2v-6.2l6.3-0.1l6.3-0.1l0.1-6.3l0.1-6.3h6.2h6.2v-6.2v-6.2h18.5h18.5l0.1,6.1l0.1,6.1l6.3,0.1l6.3,0.1v6.4
		v6.4h12.6h12.6v6.2v6.2h6.7h6.7l-0.1-6.6l-0.1-6.6l-6.3-0.1l-6.3-0.1l-0.1-6.3l-0.1-6.3l-6.1-0.1l-6.1-0.1l-0.1-6.1l-0.1-6.1
		l-6.3-0.1l-6.3-0.1v-12.1V123h18.5h18.5l0.1,6.1l0.1,6.1l12.5,0.1l12.5,0.1v6.2c0,7.3-0.8,6.5,6.8,6.5h5.9v37.2v37.2l-6.3,0.1
		l-6.3,0.1l-0.1,6.3l-0.1,6.3h-12.1H313l-0.1-6.3l-0.1-6.3l-6.3-0.1l-6.3-0.1l-0.1-6.3l-0.1-6.3l-6.1-0.1l-6.1-0.1l-0.1-6.1
		l-0.1-6.1h-25.4h-25.4l-0.1,6.1l-0.1,6.1l-6.1,0.1l-6.1,0.1l-0.1,6.3l-0.1,6.3l-6.3,0.1l-6.3,0.1l-0.1,6.3l-0.1,6.3l-6.3,0.1
		l-6.3,0.1l-0.1,18.5c0,10.2,0,18.8,0.1,19.1c0.2,0.7,0.2,0.7,6.4,0.7h6.2v6.2v6.2l6.3,0.1l6.3,0.1l0.1,6.3l0.1,6.3h6.2h6.2v5.9v5.9
		h-6.2h-6.2v6.2v6.2h-43.6h-43.6L137,317l-0.1-6.1l-25.1-0.1l-25.1-0.1v-5.9c0-3.2-0.1-6.1-0.2-6.4c-0.2-0.4-2.1-0.5-18.9-0.5H49
		v-5.9v-5.9l6.3-0.1l6.3-0.1l0.1-6.1l0.1-6.1l6.1-0.1l6.1-0.1l0.1-6.3l0.1-6.3l6.3-0.1l6.3-0.1l0.1-12.5l0.1-12.5h6.2h6.2v-31.3
		v-31.3h6.2c5.4,0,6.2-0.1,6.4-0.5c0.1-0.3,0.2-11.6,0.2-25.1V123l6.1-0.1l6.1-0.1l0.1-12.5l0.1-12.5h6c7.4,0,6.7,0.7,6.7-6.7v-6
		h6.2h6.2v-6.2v-6.2l12.5-0.1l12.5-0.1l0.1-6.3l0.1-6.3h24.8h24.8L224.4,66.3 M312.2,179v6.2h-6.1h-6.1l-0.1-5.9
		c0-3.2,0-6.1,0.1-6.3c0.1-0.3,1.4-0.4,6.1-0.3l6,0.1V179"/>
	<path id="path4" class="st2" d="M312.5,47.4c-0.1,0.2-0.1,5.8-0.1,12.5l0.1,12.1l6.3,0.1l6.3,0.1V59.6V47h-6.2
		C314.2,47,312.6,47.1,312.5,47.4 M324.7,59.6l0.1,12.2h-5.9H313V59.5V47.3l5.8,0.1l5.8,0.1L324.7,59.6 M174.3,65.8l-0.1,6.1
		L161.7,72l-12.5,0.1v6c0,7.4,0.7,6.7-6.7,6.7h-6l-0.1,6.1l-0.1,6.1l-6.1,0.2l-6.1,0.2l-0.2,12.4l-0.2,12.4l-6.2,0.2l-6.2,0.2
		l-0.2,25l-0.2,25l-6.1,0.1l-6.1,0.1l0,31.1c0,17.1-0.1,31.3-0.2,31.5c-0.2,0.3-1.9,0.4-6.3,0.5l-6,0.1l-0.2,12.4l-0.2,12.4
		l-6.1,0.1l-6.1,0.1l-0.1,6.1l-0.1,6.1l-6.2,0.2l-6.2,0.2l-0.2,6.2l-0.2,6.2l-6.1,0.1l-6.1,0.1l0.1,6.3l0.1,6.3l18.6,0.2l18.6,0.2
		l0.2,6.1l0.2,6.1l25,0.2l25,0.2l0.2,6.2l0.2,6.2h43.9h43.9l0.2-6.2l0.2-6.2l6.2-0.2l6.2-0.2l0.1-5.9c0.1-7.4,0.8-6.7-6.6-6.7h-6
		l-0.1-6.1l-0.1-6.1l-6.1-0.2l-6.1-0.2l-0.1-5.9c-0.1-7.4,0.6-6.7-6.8-6.7h-6l0.1-18.7l0.1-18.7l6.2-0.2l6.2-0.2l0.1-6.1l0.1-6.1
		l6.1-0.1l6.1-0.1l0.2-6.2l0.2-6.2l6.2-0.2l6.2-0.2l0.2-6.2l0.2-6.2h24.8h24.8l0.2,6.2l0.2,6.2l6.2,0.2l6.2,0.2l0.2,6.2l0.2,6.2
		l6.1,0.1l6.1,0.1l0.1,6.1l0.1,6.1h12.6h12.6l0.1-6.1l0.1-6.1l6.1-0.1l6.1-0.1v-37.7v-37.7l-6.1-0.1l-6.1-0.1l-0.1-6.1l-0.1-6.1
		l-12.4-0.2l-12.4-0.2l-0.2-6.2c-0.1-3.4-0.2-6.2-0.2-6.3c0,0-8.5,0-18.8,0l-18.7,0.1l-0.1,12.5l-0.1,12.5l6.1,0.1l6.1,0.1l0.1,5.9
		c0.1,7.3-0.6,6.7,6.7,6.8l5.9,0.1l0.1,6.1l0.1,6.1l-12.5-0.1l-12.5-0.1l-0.2-6.1l-0.2-6.1l-6.1-0.2l-6.1-0.2l-0.1-5.9
		c-0.1-4.5-0.2-6-0.5-6.3c-0.3-0.2-5.6-0.3-18.8-0.3l-18.4,0.1l-0.1,6.1c0,3.4-0.1,6.2-0.2,6.2c0,0-2.9,0.1-6.3,0.2l-6.2,0.2
		l-0.1,6.1l-0.1,6.1l-6.1,0.1l-6.1,0.1l-0.2,6.2l-0.2,6.2l-6.2,0.2l-6.2,0.2l-0.2,12.4l-0.2,12.4l-6.1,0.1l-6.1,0.1l0.1,6.3l0.1,6.3
		l6.1,0.1l6.1,0.1v12.4V248l-6.1-0.1l-6.1-0.1l-0.2-6.1l-0.2-6.1H168h-6.2l-0.1,6.1l-0.1,6.1l-18.7-0.1l-18.7-0.1v-6.1v-6.1
		l12.4-0.2l12.4-0.2V223v-12.4l-6-0.1c-4.4-0.1-6.1-0.2-6.3-0.5c-0.4-0.6-0.3-11.6,0.1-12c0.3-0.3,4.9-0.4,18.9-0.4h18.6l0.1-12.5
		l0.1-12.5l6.1-0.1l6.1-0.1l0.1-6.1l0.1-6.1l6.2-0.2l6.2-0.2l0.2-6.2l0.2-6.2l6.2-0.2l6.2-0.2v-6.1v-6.1l-31.4-0.1l-31.4-0.1
		l-0.1,6.1l-0.1,6.1h-12.4h-12.4v-6.1v-6.1l6.1-0.2l6.1-0.2l0.1-5.9c0.1-3.7,0.2-6,0.4-6.3c0.3-0.3,2.8-0.4,12.6-0.4h12.2l0.1-6.1
		l0.1-6.1l56.5-0.2l56.5-0.2v-6.2v-6.2l-6.1-0.1l-6.1-0.1l-0.1-6.1l-0.1-6.1l-5.9-0.1c-7.3-0.1-6.6,0.6-6.7-6.8l-0.1-5.9l-12.4-0.2
		L224.8,72l-0.1-6.1l-0.1-6.1h-25.1h-25.1L174.3,65.8 M224.4,66.3l0.1,6.3l12.5,0.1l12.5,0.1v6.2v6.2h6.2h6.2v6.2
		c0,7.3-0.8,6.5,6.8,6.5h5.9v5.8v5.8l-56.5,0.1l-56.5,0.1l-0.1,6.3l-0.1,6.3h-12.6h-12.6v6.2v6.2h-6c-4.3,0-6.1,0.1-6.4,0.4
		c-0.6,0.6-0.5,12.5,0.1,12.9c0.3,0.2,3.9,0.3,12.9,0.3l12.5-0.1l0.1-6.3l0.1-6.3h31h31v5.9v5.9l-6.3,0.1l-6.3,0.1l-0.1,6.1
		l-0.1,6.1l-6.1,0.1l-6.1,0.1l-0.1,6.3l-0.1,6.3l-6.3,0.1l-6.3,0.1l-0.1,12.5l-0.1,12.5l-18.7,0.1l-18.7,0.1l-0.1,6.6l-0.1,6.6h6.2
		h6.2V223v12.3l-12.5,0.1l-12.5,0.1l-0.1,5.9c0,3.2,0,6.2,0.1,6.6l0.2,0.7l19.1-0.1l19.1-0.1l0.1-6.3l0.1-6.3h5.7h5.7l0,6
		c0,3.3,0.1,6.2,0.2,6.4c0.2,0.3,1.7,0.4,6.7,0.3l6.5-0.1v-12.9v-12.9l-6.3-0.1l-6.3-0.1v-5.9v-5.9l6.3-0.1l6.3-0.1l0.1-12.5
		l0.1-12.5h6.2h6.2v-6.2v-6.2l6.3-0.1l6.3-0.1l0.1-6.3l0.1-6.3h6.2h6.2v-6.2v-6.2h18.5h18.5l0.1,6.1l0.1,6.1l6.3,0.1l6.3,0.1v6.4
		v6.4h12.6h12.6v6.2v6.2h6.7h6.7l-0.1-6.6l-0.1-6.6l-6.3-0.1l-6.3-0.1l-0.1-6.3l-0.1-6.3l-6.1-0.1l-6.1-0.1l-0.1-6.1l-0.1-6.1
		l-6.3-0.1l-6.3-0.1v-12.1V123h18.5h18.5l0.1,6.1l0.1,6.1l12.5,0.1l12.5,0.1v6.2c0,7.3-0.8,6.5,6.8,6.5h5.9v37.2v37.2l-6.3,0.1
		l-6.3,0.1l-0.1,6.3l-0.1,6.3h-12.1H313l-0.1-6.3l-0.1-6.3l-6.3-0.1l-6.3-0.1l-0.1-6.3l-0.1-6.3l-6.1-0.1l-6.1-0.1l-0.1-6.1
		l-0.1-6.1h-25.4h-25.4l-0.1,6.1l-0.1,6.1l-6.1,0.1l-6.1,0.1l-0.1,6.3l-0.1,6.3l-6.3,0.1l-6.3,0.1l-0.1,6.3l-0.1,6.3l-6.3,0.1
		l-6.3,0.1l-0.1,18.5c0,10.2,0,18.8,0.1,19.1c0.2,0.7,0.2,0.7,6.4,0.7h6.2v6.2v6.2l6.3,0.1l6.3,0.1l0.1,6.3l0.1,6.3h6.2h6.2v5.9v5.9
		h-6.2h-6.2v6.2v6.2h-43.6h-43.6L137,317l-0.1-6.1l-25.1-0.1l-25.1-0.1v-5.9c0-3.2-0.1-6.1-0.2-6.4c-0.2-0.4-2.1-0.5-18.9-0.5H49
		v-5.9v-5.9l6.3-0.1l6.3-0.1l0.1-6.1l0.1-6.1l6.1-0.1l6.1-0.1l0.1-6.3l0.1-6.3l6.3-0.1l6.3-0.1l0.1-12.5l0.1-12.5h6.2h6.2v-31.3
		v-31.3h6.2c5.4,0,6.2-0.1,6.4-0.5c0.1-0.3,0.2-11.6,0.2-25.1V123l6.1-0.1l6.1-0.1l0.1-12.5l0.1-12.5h6c7.4,0,6.7,0.7,6.7-6.7v-6
		h6.2h6.2v-6.2v-6.2l12.5-0.1l12.5-0.1l0.1-6.3l0.1-6.3h24.8h24.8L224.4,66.3 M312.2,179v6.2h-6.1h-6.1l-0.1-5.9
		c0-3.2,0-6.1,0.1-6.3c0.1-0.3,1.4-0.4,6.1-0.3l6,0.1V179"/>
</g>
</svg>
