<svg id="icon" height="512" viewBox="0 0 128 128" width="512" xmlns="http://www.w3.org/2000/svg"><path d="m106.5 65.441a14.1 14.1 0 0 1 -13.973 14.218h-57.054a14.247 14.247 0 0 1 -3.039-28.1 19.3 19.3 0 0 1 -.754-5.387 18.88 18.88 0 0 1 36.051-8.223 13.818 13.818 0 0 1 9.544-3.836 14.1 14.1 0 0 1 13.973 14.224 14.44 14.44 0 0 1 -.307 2.977 11.913 11.913 0 0 1 1.586-.1 14.1 14.1 0 0 1 13.973 14.227z" fill="#eeefee"/><path d="m40.9 58.226h46.2a2.5 2.5 0 0 1 2.5 2.5v33.082a0 0 0 0 1 0 0h-51.194a0 0 0 0 1 0 0v-33.085a2.5 2.5 0 0 1 2.494-2.497z" fill="#62667c"/><path d="m49.33 53.545h29.339v44.945h-29.339z" fill="#69b0ee" transform="matrix(0 1 -1 0 140.017 12.017)"/><path d="m35.389 93.808h57.222a1.248 1.248 0 0 1 1.248 1.248v2.289a3.745 3.745 0 0 1 -3.745 3.745h-52.228a3.745 3.745 0 0 1 -3.745-3.745v-2.288a1.248 1.248 0 0 1 1.248-1.249z" fill="#4f5363"/><path d="m70.028 96.539h-12.056l-1.424-2.731h14.904z" fill="#62667c"/><g fill="#eeefee" opacity=".5"><path d="m47.871 90.687h-1.63l18.344-29.339h1.629z"/><path d="m62.595 90.687h-6.047l18.344-29.339h6.047z"/></g></svg>