<?xml version="1.0" encoding="utf-8"?>
<!-- Generator: Adobe Illustrator 22.1.0, SVG Export Plug-In . SVG Version: 6.00 Build 0)  -->
<svg version="1.1" id="Capa_1" xmlns="http://www.w3.org/2000/svg" xmlns:xlink="http://www.w3.org/1999/xlink" x="0px" y="0px"
	 viewBox="0 0 468.3 468.3" style="enable-background:new 0 0 468.3 468.3;" xml:space="preserve">
<style type="text/css">
	.st0{fill:#3A556A;}
	.st1{fill:#2D93BA;}
	.st2{fill:#64798A;}
	.st3{fill:#44C4A1;}
	.st4{fill:#27A2DB;}
</style>
<path class="st0" d="M376.3,288.5c-50.2,50.2-234,50.2-284.2,0c-23.2-23.2,0-131.1,0-131.1h284.2
	C376.3,157.4,399.5,265.3,376.3,288.5z"/>
<polygon class="st1" points="22.2,415.8 31.9,432.7 51.4,432.7 61.1,415.8 70.9,432.7 83.3,432.7 63.4,327.3 19.9,327.3 0,432.7 
	12.4,432.7 "/>
<path class="st2" d="M229.5,36.5L8.6,120c-11.4,4.3-11.4,20.5,0,24.8l220.9,83.5c3,1.1,6.4,1.1,9.4,0l220.9-83.5
	c11.4-4.3,11.4-20.5,0-24.8L238.9,36.5C235.8,35.4,232.5,35.4,229.5,36.5z"/>
<polygon class="st0" points="55.1,307.6 28.6,306 38.5,153.8 231,119.6 237.4,145.3 63.8,174.8 "/>
<ellipse class="st3" cx="234.1" cy="132.4" rx="46.4" ry="19.2"/>
<circle class="st4" cx="41.6" cy="317.8" r="32.6"/>
</svg>
