<?xml version="1.0" encoding="utf-8"?>
<!-- Generator: Adobe Illustrator 22.1.0, SVG Export Plug-In . SVG Version: 6.00 Build 0)  -->
<svg version="1.1" id="Capa_1" xmlns="http://www.w3.org/2000/svg" xmlns:xlink="http://www.w3.org/1999/xlink" x="0px" y="0px"
	 viewBox="0 0 468.3 468.3" style="enable-background:new 0 0 468.3 468.3;" xml:space="preserve">
<style type="text/css">
	.st0{fill:#3A556A;}
	.st1{fill:#2D93BA;}
	.st2{fill:#64798A;}
	.st3{fill:#44C4A1;}
	.st4{fill:#27A2DB;}
</style>
<path class="st0" d="M342.4,275.5c-38.3,38.3-178.1,38.3-216.4,0c-17.6-17.6,0-99.8,0-99.8h216.4C342.4,175.7,360,257.9,342.4,275.5
	z"/>
<polygon class="st1" points="72.7,372.4 80.1,385.3 95,385.3 102.4,372.4 109.8,385.3 119.3,385.3 104.2,305 71,305 55.9,385.3 
	65.3,385.3 "/>
<path class="st2" d="M230.6,83.7L62.4,147.3c-8.7,3.3-8.7,15.6,0,18.9l168.2,63.6c2.3,0.9,4.8,0.9,7.1,0l168.2-63.6
	c8.7-3.3,8.7-15.6,0-18.9L237.7,83.7C235.4,82.8,232.9,82.8,230.6,83.7z"/>
<polygon class="st0" points="97.8,290.1 77.7,288.9 85.2,173 231.7,146.9 236.6,166.5 104.5,188.9 "/>
<ellipse class="st3" cx="234.1" cy="156.7" rx="35.3" ry="14.6"/>
<circle class="st4" cx="87.6" cy="297.8" r="24.8"/>
</svg>
