<svg id="icon" height="512" viewBox="0 0 128 128" width="512" xmlns="http://www.w3.org/2000/svg"><path d="m30.739 33.136h66.522a3.6 3.6 0 0 1 3.6 3.6v47.64a0 0 0 0 1 0 0h-73.718a0 0 0 0 1 0 0v-47.644a3.6 3.6 0 0 1 3.596-3.596z" fill="#62667c"/><path d="m42.875 26.394h42.251v64.725h-42.251z" fill="#69b0ee" transform="matrix(0 1 -1 0 122.756 -5.244)"/><path d="m22.8 84.376h82.4a1.8 1.8 0 0 1 1.8 1.8v3.3a5.394 5.394 0 0 1 -5.394 5.394h-75.212a5.394 5.394 0 0 1 -5.394-5.4v-3.3a1.8 1.8 0 0 1 1.8-1.8z" fill="#4f5363"/><path d="m72.68 88.309h-17.36l-2.051-3.933h21.462z" fill="#62667c"/><g fill="#eeefee"><path d="m42.324 59.667 14.332-7.382v2.131l-12.077 6.054v.062l12.077 6.054v2.131l-14.332-7.382z"/><path d="m58.674 69.954 8.618-22.395h2.1l-8.65 22.395z"/><path d="m85.676 61.366-14.332 7.351v-2.131l12.171-6.054v-.062l-12.171-6.054v-2.131l14.332 7.351z"/></g></svg>