<svg id="icon" height="512" viewBox="0 0 128 128" width="512" xmlns="http://www.w3.org/2000/svg"><path d="m101.167 88.427v5h-74.334v-5h34.671v-18.63h5v18.63z" fill="#eeefee"/><path d="m31.92 51.157h64.16v6.125h-64.16z" fill="#414451"/><rect fill="#575b6d" height="21.667" rx="3" width="80.333" x="23.833" y="30.823"/><circle cx="96.08" cy="41.657" fill="#ef5261" r="3.22"/><circle cx="85.467" cy="41.657" fill="#f2c55a" r="3.22"/><circle cx="74.854" cy="41.657" fill="#69b0ee" r="3.22"/><g fill="#414451"><path d="m28.105 34.448h2.579v14.417h-2.579z"/><path d="m34.668 34.448h2.579v14.417h-2.579z"/><path d="m41.23 34.448h2.579v14.417h-2.579z"/><path d="m47.793 34.448h2.579v14.417h-2.579z"/><path d="m54.355 34.448h2.579v14.417h-2.579z"/></g><rect fill="#575b6d" height="21.667" rx="3" width="80.333" x="23.833" y="55.603"/><circle cx="96.08" cy="66.436" fill="#ef5261" r="3.22"/><circle cx="85.467" cy="66.436" fill="#f2c55a" r="3.22"/><circle cx="74.854" cy="66.436" fill="#69b0ee" r="3.22"/><path d="m28.105 59.228h2.579v14.417h-2.579z" fill="#414451"/><path d="m34.668 59.228h2.579v14.417h-2.579z" fill="#414451"/><path d="m41.23 59.228h2.579v14.417h-2.579z" fill="#414451"/><path d="m47.793 59.228h2.579v14.417h-2.579z" fill="#414451"/><path d="m54.355 59.228h2.579v14.417h-2.579z" fill="#414451"/><path d="m70.25 90.917a6.25 6.25 0 1 1 -6.25-6.24 6.254 6.254 0 0 1 6.25 6.24z" fill="#575b6d"/></svg>