<?xml version="1.0" encoding="utf-8"?>
<!-- Generator: Adobe Illustrator 22.1.0, SVG Export Plug-In . SVG Version: 6.00 Build 0)  -->
<svg version="1.1" id="Layer_1" xmlns="http://www.w3.org/2000/svg" xmlns:xlink="http://www.w3.org/1999/xlink" x="0px" y="0px"
	 viewBox="0 0 512 512" style="enable-background:new 0 0 512 512;" xml:space="preserve">
<style type="text/css">
	.st0{fill:#67B59E;}
	.st1{fill:#70C3AA;}
	.st2{fill:#C2E5DB;}
	.st3{fill:#5CAA92;}
	.st4{fill:#97D3C1;}
	.st5{fill:#5E6663;}
	.st6{fill:#B0B8B6;}
	.st7{fill:#6D7A76;}
	.st8{fill:#65A08C;}
</style>
<path class="st0" d="M486.2,355.9c2,8,4.5,15.8,5.8,23.9c1.1,7.7-3.2,13.8-8.8,18.9c-11.2,10.2-25.8,13-38.6,19.9
	c-0.4,0.2-0.7,0.6-1.2,0.9c-0.5,0.1-0.9,0.1-1.4,0.2c-4.9,1.1-9.9,2.2-14.9,3.4c-49.7,13-100.6,17.3-151.7,18.4
	c-27.8,0.6-55.5-1.1-83.3-2.3c-12.4-0.5-24.9-1.5-37.1-3.7c-25.4-4.5-50.7-10.2-76-15.2c-1.8-0.4-3.7-0.4-5.5-0.5
	c-10.4-4.5-21-9-31.4-13.6c-2-0.9-3.7-2.3-5.5-3.6c-2.7-3.3-6.6-6.4-8-10.2c-3.1-8.6-4.7-17.6-2-26.8c1.2-3.3,2.5-6.5,3.7-9.8
	c1.7,1.7,3.2,3.8,5.2,5c13.3,7.5,27.3,12.6,42.4,15.1c17.3,2.8,34.4,7.1,51.7,9.6c32.2,4.7,64.5,7.4,97,7.4
	c20.8,0,41.6,1.4,62.4,0.7c21-0.6,41.9-3.2,62.9-4.3c34-2,67.4-7.6,100.1-16.6C464.3,369.1,476.7,365.1,486.2,355.9z"/>
<path class="st1" d="M486.2,355.9c-9.6,9.2-22,13.4-34.3,16.7c-32.8,9-66.1,14.7-100.1,16.6c-21,1.2-41.9,3.7-62.9,4.3
	c-20.8,0.6-41.5-0.7-62.4-0.7c-32.5,0-64.8-2.7-97-7.4c-17.3-2.5-34.4-6.8-51.7-9.6c-15.1-2.5-29.1-7.6-42.4-15.1
	c-2-1.1-3.4-3.3-5.2-5c1.4-3.3,2.7-6.6,3.9-9.8c6.8,3.9,13.5,2.5,19.8-0.9c11.8-6.1,21.6-14.9,25.4-27.6c2.8-9.3,8.2-14.4,16.8-17.4
	c1.8-0.6,3.6-2,5.3-3.1c-2.7,22.7,10.9,35.1,29.4,43c12.9,5.5,26.4,10.2,40.2,13.1c50.1,10.8,100.6,11.2,151.3,3.4
	c22.8-3.4,44.9-9.1,65.2-20.4c9.8-5.5,18.7-12.3,20.6-24.3c0.9-5.2,0.5-10.6,0.7-16c7.6,3.7,15.4,7.2,22.7,11.2
	c1.2,0.6,1.8,3.1,2.2,4.8c3.3,13.9,12.2,23.7,23.9,31.1c8.4,5.3,16.7,8.8,25.3,0.5C484.3,347.5,485.3,351.7,486.2,355.9z"/>
<path class="st2" d="M102,289.3c0.1-44.8,0.2-89.6,0.2-134.5c0-39.1,11.9-73.6,38.1-102.8c24.7-27.6,55-44.8,92.1-50.2
	c30.8-4.4,60.5-1,88.5,12.4c31.7,15.1,55.8,38.6,72,70c11.2,21.6,16,44.5,16.1,68.5c0,44.5,0,88.8,0,133.2c-0.1,0.5-0.1,0.9-0.2,1.4
	c-6.1-2.6-12.3-5-18.4-7.6c0-0.9,0.1-1.7,0.1-2.5c-0.2-44.2,0.6-88.4-1-132.6c-2-52.6-29.8-90-75.9-112.6
	c-41.3-20.3-84-18.8-124.3,4.2c-41,23.5-65.2,59.3-67.4,106.6c-2.2,45.6-0.5,91.2-0.5,136.9c0,0.7,0,1.6,0.1,2.3
	c-6.3,2.5-12.5,4.9-18.8,7.2C102.5,289.4,102.2,289.4,102,289.3z"/>
<path class="st1" d="M433.3,436.9c-5.3,7-9.5,15.4-16,20.9c-19.5,16.7-41.1,30.1-66.3,37c-2.9,0.7-5.8,2-8.6,2.9
	c-12.3,2-24.4,4.2-36.7,6c-12.4,1.7-24.9,3.7-37.3,4.4c-13.6,0.7-27.4,0.1-41.1,0.1c-17.1-1.2-33.6-4.9-50.1-9.2
	C148,491.4,122,477.9,99,458.8c-6.6-5.5-11.3-13.6-16.8-20.6c8.4,1.6,16.8,2.9,25.2,4.8c42.2,9.1,85.2,12.5,128.3,13.4
	c28.1,0.6,56.4-0.5,84.5-2.3c23.6-1.5,47.2-4.7,70.5-8.1C405.2,443.8,419.2,440,433.3,436.9z"/>
<path class="st3" d="M433.3,436.9c-14.1,3.1-28.2,6.9-42.5,9c-23.5,3.4-46.9,6.5-70.5,8.1c-28.1,1.8-56.4,2.9-84.5,2.3
	c-43.1-0.9-86.1-4.3-128.3-13.4c-8.4-1.8-16.8-3.2-25.2-4.8c-2.8-6.1-5.6-12.3-8.6-18.4c1.8,0.1,3.7,0.1,5.5,0.5
	c25.3,5.2,50.6,10.7,76,15.2c12.2,2.2,24.7,3.2,37.1,3.7c27.8,1.2,55.5,2.9,83.3,2.3c51.1-1.1,101.9-5.3,151.7-18.4
	c4.9-1.2,9.8-2.3,14.9-3.4C439.1,425.4,436.3,431.2,433.3,436.9z"/>
<path class="st4" d="M408.8,287.5c0.1-0.5,0.1-0.9,0.2-1.4c8.2,4.5,16.3,9.2,24.7,13.4c1.8,0.9,5.2,0.2,7-0.9
	c19.6-12,43.2-2.1,48,20.4c2,9.1-1.6,16.7-5.4,24.4c-8.6,8.4-17.1,4.8-25.3-0.5c-11.8-7.4-20.5-17.2-23.9-31.1
	c-0.4-1.7-1-4.2-2.2-4.8c-7.5-3.9-15.1-7.5-22.7-11.2C409,293,408.9,290.2,408.8,287.5z"/>
<path class="st4" d="M101.9,296.9c-1.7,1-3.4,2.3-5.3,3.1c-8.5,3.1-14,8-16.8,17.4C76,330.3,66,338.9,54.3,345.1
	c-6.4,3.3-13,4.7-19.8,0.9c-3.8-7.1-7.9-14-7.5-22.7c0.6-11.7,5.8-20.5,15.6-26c10.6-5.9,21.7-5.5,31.9,1.2c3.8,2.5,6.1,2.3,9.7,0.2
	c5.8-3.4,11.9-6.3,17.8-9.3c0.2,0,0.4,0.1,0.6,0.2C102.4,292,102.1,294.5,101.9,296.9z"/>
<path class="st3" d="M443.4,419.5c0.4-0.2,0.7-0.6,1.2-0.9C444.1,418.9,443.8,419.1,443.4,419.5z"/>
<path class="st2" d="M101.9,296.9c0.2-2.5,0.5-4.9,0.7-7.4c6.3-2.5,12.5-4.9,18.8-7.2c0,7.2-0.2,14.6,0,21.9
	c0.1,6.3,2.8,10.8,9.3,12.5c4.3,2.9,8.5,5.9,12.8,8.8c2.7,2,5.3,4.3,8.2,5.8c30.6,14.4,63.5,18.2,96.5,19.2
	c19,0.6,38.2-1.5,57.2-3.3c24.3-2.5,47.8-8.7,68.9-21.5c2.9-1.8,5-5,7.5-7.6c6.5-4.9,8.5-11.4,6.8-19.2c0.5-6.3,1.1-12.6,1.6-18.9
	c6.1,2.6,12.3,5,18.4,7.6c0.1,2.8,0.2,5.6,0.4,8.5c-0.2,5.3,0.1,10.7-0.7,16c-2,12-10.8,18.9-20.6,24.3
	c-20.3,11.3-42.5,16.9-65.2,20.4c-50.6,7.7-101.1,7.4-151.3-3.4c-13.8-2.9-27.3-7.6-40.2-13.1C112.8,332,99.2,319.8,101.9,296.9z"/>
<path class="st4" d="M340.1,262.3c0.9,0.9,1.5,2.2,2.5,2.5c14.2,4.2,28.6,8.4,43,12.4c1.5,0.4,3.2,0.1,4.9,0.2
	c0,0.9-0.1,1.6-0.1,2.5c-0.5,6.3-1.1,12.6-1.6,18.9c-11.7-12-27-14.7-43.5-18.9c0,4.5-0.2,7.9,0,10.9c1,8.7-2.6,15.6-8.5,21.5
	c-8.4,8.1-18.9,11.8-30,14.6c-10.1,0.5-18.2-3.4-24.2-10.8c-1,0.1-1.2,0-1.4,0.1c-14.9,11.3-29.8,13-45.2,1
	c-0.9-0.7-3.7-0.2-4.5,0.6c-4.9,5.4-11.1,8.1-18.1,9.3c-10.6-0.4-19.9-4.8-28.5-10.2c-9.8-6.1-15.2-14.9-14.4-27.1
	c0.6-9.9,0-10.3-9.7-7.5c-6.9,2-13.8,4.2-20.3,7c-14.7,6.4-17.1,13.4-9.9,27.4c-6.5-1.6-9.2-6.3-9.3-12.5c-0.1-7.2,0-14.6,0-21.9
	c0-0.7,0-1.6-0.1-2.3c14.7-4.3,29.5-8.6,44.1-13.1c2.7-0.9,5-2.7,7.6-4.2c0.9,0.7,1.7,1.5,2.5,2.2c1.2,1,2.5,2.1,3.7,3.1
	c6.1,5.3,11.8,11.4,21.1,9.1c8,0,16,0,23.9,0c3.9,4.9,7.6,9.8,11.7,14.6c1.1,1.2,3.1,2.5,4.5,2.5c11.5-0.1,23.1-0.5,34.6-1.1
	c1.7-0.1,3.8-1.4,5-2.8c3.8-4.3,7.1-8.8,10.7-13.3c8.1,0,16.2,0.1,24.3,0.1c3.3-1.1,7.1-1.7,10.1-3.6c4.4-2.8,8.1-6.8,12.2-10.2
	C338.5,263,339.2,262.7,340.1,262.3z"/>
<path class="st5" d="M130.7,316.6c-7.1-14.1-4.8-21,9.9-27.4c6.5-2.8,13.4-5.2,20.3-7c9.7-2.7,10.3-2.5,9.7,7.5
	c-0.7,12.3,4.7,21,14.4,27.1c8.6,5.4,17.9,9.9,28.5,10.2c4.2,4.8,8.4,9.5,12.5,14.2c-9.3-0.7-18.8-0.5-27.9-2.5
	c-18.3-3.9-36.5-8.8-54.6-13.5C139.2,322.5,135,319.5,130.7,316.6z"/>
<path class="st5" d="M306.8,326.8c10.9-2.8,21.6-6.5,30-14.6c5.9-5.8,9.5-12.8,8.5-21.5c-0.4-3.2,0-6.4,0-10.9
	c16.5,4.2,31.9,6.9,43.5,18.9c1.6,7.7-0.4,14.2-6.8,19.2c-0.7,0.2-1.6,0.4-2.3,0.9c-27.5,15.5-57.8,20-88.7,22.5
	C296.3,336.3,301.5,331.6,306.8,326.8z"/>
<path class="st6" d="M291,341.1c30.8-2.5,61.2-7,88.7-22.4c0.7-0.4,1.5-0.5,2.3-0.9c-2.5,2.6-4.5,5.9-7.5,7.6
	c-21.1,12.8-44.6,19-68.9,21.5c-19,2-38.2,3.9-57.2,3.3c-33-1-65.9-4.8-96.5-19.2c-2.9-1.4-5.5-3.8-8.2-5.8
	c18.2,4.5,36.2,9.6,54.6,13.5c9.1,2,18.5,1.7,27.9,2.5c2,0.2,3.9,0.9,6,0.9C251.7,341.9,271.3,341.5,291,341.1z"/>
<path class="st2" d="M340.1,262.3c-0.9,0.4-1.6,0.9-2.5,1.2c4.3-9.2,2.1-18.9,2.2-28.4c0.2-1.6,0.4-3.2,0.6-4.7
	c1.5-1.7,3.2-3.2,4.3-5c16.9-28.1,19.2-58.2,8.5-88.5c-23-64.7-102.4-88.8-157.9-48.4c-42,30.6-54,83.4-32.9,128.5
	c3.2,6.9,8.6,12.6,13,18.8c0.1,1.1,0.1,2.1,0.2,3.2c0,8.7,0,17.3,0,26c-0.9-0.7-1.7-1.5-2.5-2.2c-37.7-35.4-48.6-78.6-34.5-127.5
	c14-48.9,63.4-86.6,115.6-85.5c16,0.4,31.6,1.6,46.3,7.9c51.3,21.7,83.9,68.8,77.1,129.4c-3.1,27.9-14.9,51.1-33.9,71.1
	C342.4,259.3,341.3,260.8,340.1,262.3z"/>
<path class="st7" d="M291,341.1c-19.6,0.4-39.3,0.7-59.1,1c-2,0-3.9-0.5-6-0.9c-4.2-4.8-8.4-9.5-12.5-14.2c7-1.2,13.1-3.9,18.1-9.3
	c0.9-0.9,3.7-1.4,4.5-0.6c15.4,12.2,30.3,10.4,45.2-1c0.1-0.1,0.4,0,1.4-0.1c6,7.2,14.1,11.2,24.2,10.8
	C301.5,331.6,296.3,336.3,291,341.1z"/>
<path class="st2" d="M291.2,277c-3.6,4.4-7,9-10.7,13.3c-1.2,1.4-3.3,2.7-5,2.8c-11.5,0.6-23.1,0.9-34.6,1.1c-1.6,0-3.6-1.1-4.5-2.5
	c-4.1-4.8-7.9-9.7-11.7-14.6c0-1.6,0.1-3.2,0.1-4.9c2.6,0.2,5.3,0.6,7.9,0.9c9.8,0.6,19.8,2.1,29.6,1.7c9.7-0.4,19.3-2.5,28.9-3.7
	C291.1,273.1,291.1,275.1,291.2,277z"/>
<path class="st2" d="M339.9,235c-0.1,9.6,2.1,19.3-2.2,28.4c-4.1,3.4-7.7,7.2-12.2,10.2c-2.8,1.8-6.6,2.5-10.1,3.6
	c-0.2-6.9-0.5-13.8-0.7-20.6c3.7-2.8,7.5-5.4,10.9-8.5C330.5,243.9,335.2,239.5,339.9,235z"/>
<path class="st2" d="M175.7,264.9c0-8.7,0-17.3,0-26c3.7,3.3,7.4,6.9,11.3,9.9c4.2,3.2,8.8,5.9,13.3,8.8c0.1,6.5,0.2,12.9,0.2,19.4
	c-9.3,2.3-15.1-3.8-21.1-9.1C178.1,267,176.9,265.9,175.7,264.9z"/>
<path class="st7" d="M314.7,256.6c0.2,6.9,0.5,13.8,0.7,20.6c-8.1,0-16.2-0.1-24.3-0.1c0-2-0.1-4.1-0.1-6
	c0.1-15.6,4.2-19.5,17.4-16.8C310.6,254.7,312.7,255.8,314.7,256.6z"/>
<path class="st7" d="M200.5,277.2c-0.1-6.5-0.2-12.9-0.2-19.4c5-4.1,10.8-4.3,16.7-3.4c4.9,0.7,8.2,3.2,7.7,9c-0.2,3.1,0,6,0,9.1
	c0,1.6-0.1,3.2-0.1,4.9C216.4,277.2,208.5,277.2,200.5,277.2z"/>
<path class="st4" d="M224.7,272.2c0-3.1-0.2-6.1,0-9.1c0.5-5.8-2.8-8.2-7.7-9c-5.9-0.9-11.8-0.5-16.7,3.4c-4.4-2.9-9-5.6-13.3-8.8
	c-3.9-3.1-7.5-6.6-11.3-9.9c-0.1-1.1-0.1-2.1-0.2-3.2c0-21.6-0.1-43.2-0.1-65c0-5.4,0.7-10.8,1.2-16.2c2-2.7,4.3-5.3,5.9-8.2
	c2.9-5.5,4.3-12.5,8.4-16.8c7.9-8.1,16.7-15.5,26.2-21.5c18.9-12,39.8-13.6,61.4-8.7c12.8,2.8,23.1,9.7,33,17.8
	c11.3,9.2,19,20.5,24.1,34c1.6,4.4,3.1,9,4.7,13.4c0.1,22,0.1,43.8,0.2,65.8c-0.2,1.6-0.4,3.2-0.6,4.7c-4.7,4.4-9.3,8.8-14.2,13
	c-3.4,3.1-7.2,5.6-10.9,8.5c-2.1-0.7-4.1-2-6.3-2.3c-13.4-2.7-17.3,1.2-17.4,16.8c-9.6,1.4-19.3,3.3-28.9,3.7
	c-9.8,0.4-19.8-1-29.6-1.7C229.8,272.9,227.2,272.5,224.7,272.2z M205,215.4c0,10.4,8.8,18.9,19.4,18.8c9.8-0.1,18.9-8.7,18.9-18.1
	c0.1-11.4-8.5-20.6-19.2-20.6C213.6,195.4,204.9,204.5,205,215.4z M291.7,196.1c-11.3,0-19.2,8-19,19.4c0.1,10.6,9,18.8,20.3,18.5
	c9.5-0.1,18.7-9.7,18.7-19.4C311.5,204.8,302.3,196.1,291.7,196.1z M256.5,263.6c11.8,0,22.1-5,26.8-12.9c1.2-2.1,0-5.4,0-8.2
	c-2.2,0.9-4.5,1.5-6.4,2.8c-3.4,2.5-6.3,6.1-9.9,7.7c-10.6,4.5-20.4,1.2-27.6-7.9c-1.4-1.6-4.3-1.8-6.4-2.8c-0.4,2.5-1,4.8-1,7.2
	c0,1,1.2,2.1,2.1,2.9C240,260.3,248.4,263.5,256.5,263.6z"/>
<path class="st4" d="M176.7,154.6c12.2-57,75.5-84.9,124.9-53.9c23.1,14.5,37.6,35.4,38.7,63.9c-1.6-4.4-2.9-9-4.7-13.4
	c-5-13.4-12.8-24.8-24.1-34c-9.9-8.1-20.3-15-33-17.8c-21.6-4.9-42.5-3.3-61.4,8.7c-9.5,6-18.3,13.5-26.2,21.5
	c-4.2,4.3-5.4,11.3-8.4,16.8C181,149.3,178.6,151.9,176.7,154.6z"/>
<path class="st8" d="M205,215.4c0-10.9,8.6-20,19.2-19.9c10.7,0,19.2,9.3,19.2,20.6c-0.1,9.3-9.1,18.1-18.9,18.1
	C213.9,234.3,205,225.7,205,215.4z"/>
<path class="st8" d="M291.7,196.1c10.4,0,19.8,8.7,19.8,18.7c0,9.7-9.1,19.3-18.7,19.4c-11.3,0.1-20.1-8-20.3-18.5
	C272.6,204.1,280.4,196.1,291.7,196.1z"/>
<path class="st8" d="M256.5,263.6c-8.1-0.2-16.5-3.3-22.7-10.9c-0.7-1-2.1-2-2.1-2.9c0-2.5,0.6-4.8,1-7.2c2.2,0.9,5.2,1.2,6.4,2.8
	c7.2,9.1,17.1,12.4,27.6,7.9c3.7-1.6,6.5-5.4,9.9-7.7c1.8-1.4,4.3-1.8,6.4-2.8c0.1,2.7,1.2,6.1,0,8.2
	C278.6,258.7,268.3,263.6,256.5,263.6z"/>
</svg>
